<?xml version="1.0"?>
<svg width="1200" height="61" xmlns="http://www.w3.org/2000/svg" xmlns:svg="http://www.w3.org/2000/svg" version="1.1">
 <g class="layer">
  <title>Layer 1</title>
  <g id="svg_63">
   <svg height="61" id="svg_1" version="1.1" viewBox="30.279998779296875 31.990005493164062 2942.030029296875 150.7100067138672" width="1200" x="0" xml:space="preserve" xmlns="http://www.w3.org/2000/svg" y="0">
    <g class="layer" display="inline" id="svg_2">
     <title>Layer 1</title>
     <path d="m116.01,88c0,21.48 0,42.46 0,63.72c-28.63,0 -57.03,0 -85.73,0c0,-39.67 0,-79.41 0,-119.44c28.34,0 56.74,0 85.73,0c0,18.36 0,36.79 0,55.72m-69.39,-29.49c0,25.96 0,51.92 0,78.04c17.77,0 35.14,0 52.45,0c0,-29.92 0,-59.5 0,-89.19c-17.55,0 -34.8,0 -52.45,0c0,3.55 0,6.86 0,11.15z" fill="#e0e0e0" id="svg_33" stroke="#ffffff" stroke-width="0"/>
     <path d="m2888.99,87c0,-5.81 0,-11.12 0,-16.72c5.46,0 10.72,0 16.5,0c0,21.97 0,44.04 0,66.35c16.95,0 33.38,0 50.28,0c0,-21.97 0,-44.03 0,-66.36c5.71,0 10.97,0 16.54,0c0,37.33 0,74.73 0,112.43c-27.57,0 -55.14,0 -83.01,0c0,-4.61 0,-9.36 0,-14.54c21.87,0 43.93,0 66.34,0c0,-5.48 0,-10.54 0,-15.99c-21.95,0 -44.02,0 -66.65,0c0,-21.82 0,-43.24 0,-65.17z" fill="#e0e0e0" id="svg_32" stroke="#ffffff" stroke-width="0"/>
     <path d="m388,98.11c-16.14,0 -31.79,0 -47.72,0c0,-21.96 0,-43.71 0,-65.79c27.6,0 55.34,0 83.4,0c0,4.68 0,9.55 0,14.77c-22.21,0 -44.3,0 -66.73,0c0,12.04 0,23.76 0,35.74c22.12,0 44.24,0 66.71,0c0,23 0,45.74 0,68.83c-27.49,0 -55.23,0 -83.31,0c0,-4.61 0,-9.48 0,-14.7c22.13,0 44.22,0 66.67,0c0,-13.04 0,-25.73 0,-38.85c-6.26,0 -12.39,0 -19.02,0z" fill="#e0e0e0" id="svg_31" stroke="#ffffff" stroke-width="0"/>
     <path d="m1553.01,136.89c17.8,0 35.11,0 52.71,0c0,4.96 0,9.72 0,14.79c-27.61,0 -55.34,0 -83.4,0c0,-39.56 0,-79.3 0,-119.36c27.55,0 55.29,0 83.35,0c0,4.68 0,9.55 0,14.76c-22.19,0 -44.29,0 -66.71,0c0,12.05 0,23.76 0,35.75c22.11,0 44.23,0 66.7,0c0,5.13 0,9.99 0,15.22c-22.14,0 -44.23,0 -66.68,0c0,13.03 0,25.72 0,38.84c4.6,0 9.06,0 14.03,0z" fill="#e0e0e0" id="svg_30" stroke="#ffffff" stroke-width="0"/>
     <path d="m215,69.99c6.48,0 12.45,0 18.83,0c0,-12.62 0,-25.03 0,-37.72c5.65,0 10.91,0 16.48,0c0,39.68 0,79.41 0,119.45c-27.6,0 -55.17,0 -83.03,0c0,-27.01 0,-54.08 0,-81.73c15.69,0 31.46,0 47.72,0m1.5,66.9c5.76,0 11.52,0 17.27,0c0,-17.54 0,-34.46 0,-51.48c-16.78,0 -33.33,0 -49.89,0c0,17.22 0,34.14 0,51.48c10.71,0 21.16,0 32.62,0z" fill="#e0e0e0" id="svg_29" stroke="#ffffff" stroke-width="0"/>
     <path d="m1066.63,32c0.98,1.53 1.91,3.06 1.93,4.59c0.13,10.97 0.07,21.95 0.07,33.35c22.34,0 44.42,0 66.75,0c0,27.51 0,54.58 0,81.86c-27.79,0 -55.37,0 -83.17,0c0,-39.88 0,-79.62 0,-119.81c4.72,0 9.34,0 14.42,0.01m20.87,53.11c-6.12,0 -12.25,0 -18.53,0c0,17.44 0,34.46 0,51.57c16.75,0 33.17,0 49.72,0c0,-17.24 0,-34.27 0,-51.57c-10.26,0 -20.22,0 -31.19,0z" fill="#e0e0e0" id="svg_28" stroke="#ffffff" stroke-width="0"/>
     <path d="m2473.63,100c0,17.47 0,34.44 0,51.71c-27.91,0 -55.48,0 -83.35,0c0,-26.99 0,-54.06 0,-81.53c21.99,0 44.07,0 66.54,0c0,-12.8 0,-25.21 0,-37.9c5.65,0 10.9,0 16.81,0c0,22.35 0,44.79 0,67.72m-16.63,11.5c0,-8.75 0,-17.49 0,-26.14c-17.14,0 -33.56,0 -50.18,0c0,17.18 0,34.1 0,51.27c16.74,0 33.28,0 50.18,0c0,-8.21 0,-16.17 0,-25.13z" fill="#e0e0e0" id="svg_27" stroke="#ffffff" stroke-width="0"/>
     <path d="m751.99,142.96c0,-37.13 0,-73.76 0,-110.68c5.48,0 10.73,0 16.4,0c0,16.67 0,33.42 0,50.44c17.83,0 35.24,0 52.93,0c0,-16.78 0,-33.39 0,-50.36c5.51,0 10.74,0 16.34,0c0,39.45 0,79.19 0,119.28c-5.08,0 -10.44,0 -16.18,0c0,-17.65 0,-35.26 0,-53.2c-17.6,0 -34.84,0 -52.65,0c0,17.62 0,35.32 0,53.3c-5.81,0 -11.05,0 -16.84,0c0,-2.73 0,-5.51 0,-8.78z" fill="#e0e0e0" id="svg_26" stroke="#ffffff" stroke-width="0"/>
     <path d="m523.62,142.93c0,3.13 0,5.78 0,8.74c-27.85,0 -55.41,0 -83.3,0c0,-16 0,-32.2 0,-48.64c22.03,0 43.97,0 66.29,0c0,-5.95 0,-11.66 0,-17.79c-21.98,0 -44.05,0 -66.36,0c0,-5.16 0,-9.92 0,-14.96c27.54,0 55.12,0 83.37,0c0,24 0,48.08 0,72.65m-58.08,-6.03c13.74,0 27.48,0 41.13,0c0,-6.67 0,-12.73 0,-18.54c-16.87,0 -33.41,0 -49.78,0c0,6.29 0,12.22 0,18.54c2.74,0 5.2,0 8.65,0z" fill="#e0e0e0" id="svg_25" stroke="#ffffff" stroke-width="0"/>
     <path d="m1722,118c-16.97,0 -33.44,0 -50.14,0c0,6.28 0,12.21 0,18.65c22.04,0 44.11,0 66.47,0c0,5.25 0,10 0,15.06c-27.61,0 -55.18,0 -83.05,0c0,-26.99 0,-54.07 0,-81.43c27.52,0 55.11,0 83.02,0c0,15.66 0,31.4 0,47.72c-5.27,0 -10.54,0 -16.3,0m-46.18,-14.8c4.66,-0.07 30.63,-0.3 45.91,-0.3c0,-6.29 0,-11.89 0,-17.45c-16.81,0 -33.35,0 -50.12,0c0,5.18 0.25,16.44 0.23,17.2c-0.03,0.76 -0.68,0.61 3.98,0.54l0,0.01z" fill="#e0e0e0" id="svg_24" stroke="#ffffff" stroke-width="0"/>
     <path d="m2590.02,138.18c1.59,-0.75 3.14,-1.25 4.7,-1.25c18.32,-0.06 36.65,-0.04 54.97,-0.04c1.62,0 3.24,0 5.08,0c0,-6.35 0,-12.29 0,-18.62c-21.3,0 -42.7,0 -64.44,0c0,-16.12 0,-31.85 0,-47.93c26.8,0 53.82,0 81.05,0c0,4.85 0,9.59 0,14.69c-21.5,0 -42.76,0 -64.39,0c0,6.04 0,11.73 0,17.76c21.39,0 42.67,0 64.29,0c0,16.4 0,32.46 0,48.87c-26.81,0 -53.7,0 -81.28,0c0,-4.16 0,-8.58 0.02,-13.48z" fill="#e0e0e0" id="svg_23" stroke="#ffffff" stroke-width="0"/>
     <path d="m1235.63,97c0,18.45 0,36.4 0,54.68c-27.83,0 -55.37,0 -83.28,0c0,-26.91 0,-54.07 0,-81.46c27.54,0 55.11,0 83.28,0c0,8.75 0,17.51 0,26.78m-16.63,33.4c0,-15.07 0,-30.13 0,-45.01c-17.21,0 -33.64,0 -50.14,0c0,17.21 0,34.13 0,51.21c16.79,0 33.33,0 50.14,0c0,-1.94 0,-3.59 0,-6.2z" fill="#e0e0e0" id="svg_22" stroke="#ffffff" stroke-width="0"/>
     <path d="m1335.63,82.02c0,23.47 0,46.43 0,69.69c-27.91,0 -55.48,0 -83.35,0c0,-26.98 0,-54.05 0,-81.42c5.16,0 10.41,0 16.19,0c0,21.96 0,44.02 0,66.34c16.96,0 33.4,0 50.3,0c0,-21.98 0,-44.04 0,-66.37c5.72,0 10.98,0 16.86,0c0,3.72 0,7.49 0,11.76z" fill="#e0e0e0" id="svg_21" stroke="#ffffff" stroke-width="0"/>
     <path d="m2289.99,73.16c0.78,-1.38 1.55,-3.05 2.33,-3.05c26.95,-0.14 53.91,-0.12 81.06,-0.12c0,27.51 0,54.59 0,81.84c-5.39,0 -10.53,0 -16.12,0c0,-21.94 0,-44.01 0,-66.39c-17.02,0 -33.57,0 -50.51,0c0,22.02 0,43.95 0,66.22c-5.61,0 -10.84,0 -16.76,0c0,-25.85 -0.78,-77.12 0,-78.5z" fill="#e0e0e0" id="svg_20" stroke="#ffffff" stroke-width="0"/>
     <path d="m2545,152.01c-18.48,0 -36.45,0 -54.72,0c0,-27.28 0,-54.35 0,-81.72c5.16,0 10.41,0 16.19,0c0,21.96 0,44.02 0,66.34c16.96,0 33.4,0 50.3,0c0,-21.98 0,-44.04 0,-66.37c5.72,0 10.98,0 16.55,0c0,27.02 0,54.09 0,81.75c-9.29,0 -18.55,0 -28.32,0z" fill="#e0e0e0" id="svg_19" stroke="#ffffff" stroke-width="0"/>
     <path d="m1771.62,113c0,8.13 0,15.77 0,23.77c21.68,0 42.96,0 64.57,0c0,5.1 0,9.84 0,14.91c-26.84,0 -53.73,0 -80.91,0c0,-26.97 0,-54.04 0,-81.4c26.85,0 53.77,0 80.96,0c0,4.7 0,9.47 0,14.78c-21.44,0 -42.83,0 -64.62,0c0,9.51 0,18.47 0,27.94z" fill="#e0e0e0" id="svg_18" stroke="#ffffff" stroke-width="0"/>
     <path d="m2129,85.11c-8.63,0 -16.76,0 -25.13,0c0,17.37 0,34.3 0,51.61c21.34,0 42.62,0 64.27,0c0,5.24 0,10.1 0,15.13c-26.91,0 -53.7,0 -80.82,0c0,-27.06 0,-54.13 0,-81.53c26.73,0 53.64,0 80.87,0c0,4.61 0,9.35 0,14.79c-12.87,0 -25.78,0 -39.19,0z" fill="#e0e0e0" id="svg_17" stroke="#ffffff" stroke-width="0"/>
     <path d="m1905,69.99c12.13,0 23.77,0 35.7,0c0,4.93 0,9.67 0,14.85c-11.87,0 -23.92,0 -36.42,0c0,22.46 0,44.5 0,66.85c-5.67,0 -10.91,0 -16.67,0c0,-21.9 0,-43.94 0,-66.45c-12.71,0 -24.94,0 -37.39,0c0,-5.22 0,-9.97 0,-15.25c18.12,0 36.2,0 54.78,0z" fill="#e0e0e0" id="svg_16" stroke="#ffffff" stroke-width="0"/>
     <path d="m2763.99,69.99c4.48,0 8.45,0 12.72,0c0,4.94 0,9.69 0,14.86c-11.89,0 -23.95,0 -36.44,0c0,22.46 0,44.5 0,66.85c-5.68,0 -10.92,0 -16.67,0c0,-21.92 0,-43.97 0,-66.48c-12.71,0 -24.94,0 -37.38,0c0,-5.21 0,-9.96 0,-15.23c25.79,0 51.53,0 77.77,0z" fill="#e0e0e0" id="svg_15" stroke="#ffffff" stroke-width="0"/>
     <path d="m2808.63,121c0,10.46 0,20.43 0,30.7c-5.55,0 -10.79,0 -16.33,0c0,-26.93 0,-53.99 0,-81.38c26.88,0 53.93,0 81.35,0c0,4.61 0,9.47 0,14.83c-21.56,0 -43.1,0 -65.02,0c0,12.1 0,23.72 0,35.85z" fill="#e0e0e0" id="svg_14" stroke="#ffffff" stroke-width="0"/>
     <path d="m1368.63,93.04c0,19.78 0,39.07 0,58.66c-5.56,0 -10.79,0 -16.34,0c0,-26.94 0,-54 0,-81.38c26.9,0 53.95,0 81.36,0c0,4.62 0,9.49 0,14.7c-21.43,0 -42.84,0 -65.02,0c0,2.71 0,5.12 0,8.02z" fill="#e0e0e0" id="svg_13" stroke="#ffffff" stroke-width="0"/>
     <path d="m1972.63,123c0,9.8 0,19.1 0,28.7c-5.55,0 -10.79,0 -16.33,0c0,-26.94 0,-53.99 0,-81.38c26.88,0 53.94,0 81.35,0c0,4.61 0,9.48 0,14.83c-21.56,0 -43.1,0 -65.02,0c0,12.76 0,25.06 0,37.85z" fill="#e0e0e0" id="svg_12" stroke="#ffffff" stroke-width="0"/>
     <path d="m971.63,95.02c0,19.12 0,37.74 0,56.68c-5.55,0 -10.78,0 -16.33,0c0,-26.93 0,-53.99 0,-81.37c26.88,0 53.93,0 81.35,0c0,4.6 0,9.46 0,14.82c-21.55,0 -43.1,0 -65.02,0c0,3.44 0,6.41 0,9.87z" fill="#e0e0e0" id="svg_11" stroke="#ffffff" stroke-width="0"/>
     <path d="m2255.99,137c0,-35.11 0,-69.71 0,-104.66c5.45,0 10.81,0 16.41,0c0,39.76 0,79.45 0,119.41c-5.38,0 -10.62,0 -16.41,0c0,-4.73 0,-9.49 0,-14.75z" fill="#e0e0e0" id="svg_10" stroke="#ffffff" stroke-width="0"/>
     <path d="m1620.99,64c0,-10.8 0,-21.1 0,-31.7c5.41,0 10.66,0 16.28,0c0,39.68 0,79.47 0,119.49c-5.33,0 -10.57,0 -16.28,0c0,-29.16 0,-58.23 0,-87.79z" fill="#e0e0e0" id="svg_9" stroke="#ffffff" stroke-width="0"/>
     <path d="m539.99,136c0,-34.77 0,-69.04 0,-103.66c5.45,0 10.81,0 16.41,0c0,39.76 0,79.45 0,119.41c-5.38,0 -10.62,0 -16.41,0c0,-5.06 0,-10.16 0,-15.75z" fill="#e0e0e0" id="svg_8" stroke="#ffffff" stroke-width="0"/>
     <path d="m132.99,80c0,-16.13 0,-31.75 0,-47.7c5.51,0 10.87,0 16.43,0c0,39.87 0,79.56 0,119.48c-5.46,0 -10.7,0 -16.43,0c0,-23.81 0,-47.54 0,-71.78z" fill="#e0e0e0" id="svg_7" stroke="#ffffff" stroke-width="0"/>
     <path d="m2069.64,102c0,16.77 0,33.05 0,49.67c-5.49,0 -10.72,0 -16.3,0c0,-26.9 0,-54.05 0,-81.44c5.21,0 10.46,0 16.3,0c0,10.42 0,20.85 0,31.77z" fill="#e0e0e0" id="svg_6" stroke="#ffffff" stroke-width="0"/>
     <path d="m2063.86,37.99c2.09,0 3.7,0 5.55,0c0,5.48 0,10.53 0,15.8c-5.44,0 -10.67,0 -16.16,0c0,-5.09 0,-10.14 0,-15.8c3.31,0 6.72,0 10.61,0z" fill="#e0e0e0" id="svg_5" stroke="#ffffff" stroke-width="0"/>
     <path d="m938.62,142.72c0,3.13 0,5.78 0,8.74c-27.85,0 -55.41,0 -83.3,0c0,-16 0,-32.2 0,-48.64c22.03,0 43.97,0 66.29,0c0,-5.95 0,-11.66 0,-17.79c-21.98,0 -44.05,0 -66.36,0c0,-5.16 0,-9.92 0,-14.96c27.54,0 55.12,0 83.37,0c0,24 0,48.08 0,72.65m-58.08,-6.03c13.74,0 27.48,0 41.13,0c0,-6.67 0,-12.73 0,-18.54c-16.87,0 -33.41,0 -49.78,0c0,6.29 0,12.22 0,18.54c2.74,0 5.2,0 8.65,0z" fill="#e0e0e0" id="svg_4" stroke="#ffffff" stroke-width="0"/>
     <path d="m627.47,69.92c12.13,0 23.77,0 35.7,0c0,4.93 0,9.67 0,14.85c-11.87,0 -23.92,0 -36.42,0c0,22.46 0,44.5 0,66.85c-5.67,0 -10.91,0 -16.67,0c0,-21.9 0,-43.94 0,-66.45c-12.71,0 -24.94,0 -37.39,0c0,-5.22 0,-9.97 0,-15.25c18.12,0 36.2,0 54.78,0z" fill="#e0e0e0" id="svg_3" stroke="#ffffff" stroke-width="0"/>
    </g>
   </svg>
  </g>
 </g>

</svg>