<?xml version="1.0"?>
<svg width="3005" height="337" xmlns="http://www.w3.org/2000/svg" xmlns:svg="http://www.w3.org/2000/svg" enable-background="new 0 0 3005 337" version="1.1" xml:space="preserve">

 <g class="layer">
  <title>Layer 1</title>
  <path d="m1844.91,265.97c21.26,-4.56 41.15,-11.45 59.02,-23.81c-30.54,0 -61.07,0 -91.83,0c0,-9.15 0,-17.9 0,-27.12c38.77,0 77.5,0 116.45,0c0,-6.41 0,-12.35 0,-18.79c-38.68,0 -77.39,0 -116.39,0c0,-9.56 0,-18.63 0,-28.21c38.62,0 77.34,0 116.34,0c0,-6.75 0,-13.01 0,-19.79c-38.7,0 -77.41,0 -116.37,0c0,-9.58 0,-18.65 0,-27.99c88.42,0 176.83,0 265.59,0c0,8.93 0,18.01 0,27.67c-39.09,0 -78.45,0 -118.04,0c0,6.85 0,13.11 0,19.81c39.36,0 78.59,0 118.1,0c0,9.49 0,18.57 0,28.05c-39.13,0 -78.38,0 -117.98,0c0,6.45 0,12.5 0,18.98c39.17,0 78.39,0 117.95,0c0,9.26 0,18.13 0,27.21c-30.57,0 -61.02,0 -91.47,0c27.92,17.59 58.59,26.11 91.47,28.38c0,9.56 0,18.95 0,28.74c-43.55,-5 -83.01,-20.09 -118.76,-46.45c0,17.04 0,33.43 0,50.08c-9.96,0 -19.55,0 -29.71,0c0,-15.79 0,-31.64 0,-48.26c-35.07,26.74 -74.58,39.33 -117.18,44.72c0,-9.7 0,-18.98 0,-28.29c10.79,-1.62 21.59,-3.25 32.81,-4.93z" fill="#cccccc" id="svg_2" opacity="1"/>
  <path d="m101.07,301.3c-1.34,-0.48 -2.54,-0.77 -2.96,-1.51c-0.43,-0.76 -0.11,-1.94 -0.11,-2.94c0,-85 0,-170 0,-254.99c0,-1.13 0,-2.26 0,-3.63c67.24,0 134.16,0 201.35,0c0,87.49 0,174.91 0,263.08c-65.97,0 -131.87,0 -198.28,-0.01m46.43,-118.95c-5.46,0 -10.92,0 -16.57,0c0,29.82 0,59.17 0,88.59c45.44,0 90.53,0 135.76,0c0,-29.54 0,-58.91 0,-88.59c-39.6,0 -78.9,0 -119.19,0m30,-30.2c29.75,0 59.51,0 89.17,0c0,-28.34 0,-56.07 0,-83.79c-45.42,0 -90.53,0 -135.82,0c0,27.96 0,55.69 0,83.79c15.38,0 30.52,0 46.65,0z" fill="#cccccc" id="svg_3" opacity="1"/>
  <path d="m1190.04,186c0,23.81 0,47.12 0,70.88c-39.28,0 -78.35,0 -117.68,0c0,6.16 0,11.89 0,17.9c39.13,0 78.07,0 117.35,0c0,9.36 0,18.45 0,27.88c-49.65,0 -99.55,0 -149.91,0c0,-14.96 0,-30.01 0,-45.45c-38.72,0 -76.97,0 -115.53,0c0,-33.76 0,-67.14 0,-100.76c88.5,0 176.9,0 265.77,0c0,9.81 0,19.43 0,29.55m-97.54,-1c-46.08,0 -92.15,0 -138.17,0c0,14.73 0,28.82 0,42.86c68.64,0 137,0 205.34,0c0,-14.41 0,-28.49 0,-42.86c-22.24,0 -44.2,0 -67.17,0z" fill="#cccccc" id="svg_4" opacity="1"/>
  <path d="m1664.26,78.09c0,64.09 0,127.7 0,191.68c39.42,0 78.33,0 117.53,0c0,10.11 0,19.86 0,29.92c-88.43,0 -176.96,0 -265.71,0c0,-9.82 0,-19.57 0,-29.67c37.88,0 75.63,0 113.76,0c0,-66.72 0,-133.09 0,-199.92c-37.72,0 -75.62,0 -113.74,0c0,-10.2 0,-19.95 0,-29.95c88.49,0 176.9,0 265.64,0c0,9.62 0,19.38 0,29.63c-38.79,0 -77.84,0 -117.48,0c0,2.94 0,5.38 0,8.31z" fill="#cccccc" id="svg_5" opacity="1"/>
  <path d="m1039,117.09c0,-2.14 0,-3.8 0,-5.77c-27.89,0 -55.62,0 -83.75,0c0,9.9 0,19.98 0,30.39c-10.46,0 -20.53,0 -30.95,0c0,-19.32 0,-38.85 0,-58.61c38.02,0 75.97,0 114.31,0c0,-5.94 0,-11.67 0,-17.98c-37.9,0 -76.1,0 -114.45,0c0,-9.63 0,-18.71 0,-27.99c88.61,0 177.01,0 265.65,0c0,9.21 0,18.29 0,27.81c-39.3,0 -78.54,0 -117.99,0c0,6.04 0,11.65 0,17.73c39.19,0 78.4,0 117.92,0c0,19.88 0,39.29 0,59.04c-9.91,0 -19.98,0 -30.45,0c0,-9.85 0,-19.93 0,-30.36c-29.27,0 -58.16,0 -87.52,0c0,9.94 0,19.99 0,30.37c-11.03,0 -21.59,0 -32.77,0c0,-7.95 0,-16.05 0,-24.63z" fill="#cccccc" id="svg_6" opacity="1"/>
  <path d="m701.41,179.46c64.92,0 129.37,0 194.15,0c0,24.92 0,49.46 0,74.38c-55.42,0 -110.82,0 -166.56,0c0,7.1 0,13.81 0,20.9c55.36,0 110.78,0 166.54,0c0,9.43 0,18.5 0,27.92c-65.23,0 -130.61,0 -196.26,0c0,-25.14 0,-50.38 0,-76c55.36,0 110.78,0 166.52,0c0,-6.6 0,-12.85 0,-19.45c-55.32,0 -110.73,0 -166.72,0c0,-9.08 -0.03,-17.83 0.08,-26.58c0,-0.39 1.16,-0.78 2.25,-1.17z" fill="#cccccc" id="svg_7" opacity="1"/>
  <path d="m703.24,166.73c-2.52,0.08 -4.39,0.36 -4.31,-2.86c0.2,-7.79 0.07,-15.59 0.07,-23.75c13.38,0 26.47,0 39.85,0c0,-6.08 0,-11.81 0,-17.89c-12.99,0 -26.08,0 -39.52,0c0,-9.04 0,-17.75 0,-26.87c13.14,0 26.22,0 39.56,0c0,-5.84 0,-11.27 0,-17.23c-13.05,0 -26.27,0 -39.69,0c0,-9.1 0,-17.7 0,-26.69c13.18,0 26.27,0 39.83,0c0,-5.96 0,-11.54 0,-17.43c10.04,0 19.62,0 29.66,0c0,5.43 0,11.01 0,16.92c18.17,0 35.91,0 54.2,0c0,-5.47 0,-11.2 0,-17.01c10.13,0 19.71,0 29.6,0c0,5.69 0,11.15 0,17.23c14.49,0 28.7,0 43.14,0c0,9.19 0,17.77 0,26.73c-14.19,0 -28.28,0 -42.66,0c0,5.79 0,11.21 0,17.25c13.99,0 28.2,0 42.65,0c0,9.19 0,17.77 0,26.74c-14.16,0 -28.25,0 -42.64,0c0,6.11 0,11.84 0,17.92c13.97,0 28.08,0 42.55,0c0,9.04 0,17.73 0,26.69c-24.06,0 -47.98,0 -72.27,0c0,-14.62 0,-29.21 0,-44.13c-18.23,0 -36.09,0 -54.35,0c0,14.65 0,29.23 0,44.38c-21.99,0 -43.59,0 -65.67,0m97.26,-71.46c7.4,0 14.81,0 22.15,0c0,-6.1 0,-11.63 0,-17c-18.05,0 -35.76,0 -53.39,0c0,5.82 0,11.36 0,17c10.31,0 20.27,0 31.24,0z" fill="#cccccc" id="svg_8" opacity="1"/>
  <path d="m2857,273.36c5.31,0 10.13,0 15.32,0c0,-44.5 0,-88.68 0,-133.23c-18.95,0 -37.87,0 -57.07,0c0,-9.93 0,-19.52 0,-29.73c18.94,0 37.97,0 57.32,0c0,-25.72 0,-50.83 0,-76.24c10.89,0 21.45,0 32.49,0c0,25.23 0,50.46 0,76.16c20.88,0 41.28,0 61.93,0c0,10.05 0,19.63 0,29.59c-20.48,0 -40.9,0 -61.6,0c0,44.59 0,88.79 0,133.48c21.59,0 43,0 64.6,0c0,9.94 0,19.4 0,29.24c-53.4,0 -106.92,0 -160.72,0c0,-9.46 0,-19.05 0,-29.27c15.7,0 31.46,0 47.73,0z" fill="#cccccc" id="svg_9" opacity="1"/>
  <path d="m2256.87,180c-8.95,0 -17.42,0 -26.26,0c0,-15.85 0,-31.27 0,-46.97c-10.6,0 -20.82,0 -31.41,0c0,15.67 0,31.09 0,46.74c-9.95,0 -19.52,0 -29.49,0c0,-15.59 0,-31.01 0,-46.72c-10.31,0 -20.24,0 -30.68,0c0,15.4 0,30.96 0,46.73c-10.1,0 -19.69,0 -29.56,0c0,-24.48 0,-48.88 0,-73.75c20,0 39.9,0 60.01,0c0,-6.55 0,-12.63 0,-19.06c-20.01,0 -39.78,0 -59.92,0c0,-16.88 0,-33.42 0,-50.25c9.64,0 19.23,0 29.21,0c0,7.22 0,14.31 0,21.72c10.31,0 20.23,0 30.79,0c0,-7.13 0,-14.34 0,-21.78c10.08,0 19.51,0 29.39,0c0,7.18 0,14.26 0,21.85c20.49,0 40.55,0 60.89,0c0,9.58 0,18.67 0,28.26c-20.05,0 -40.12,0 -60.43,0c0,6.57 0,12.64 0,19.17c20.18,0 40.24,0 60.71,0c0,10.74 0,21.03 0,31.31c0,13 0,25.99 0,38.99c0,1.93 0.59,4.29 -3.25,3.76z" fill="#cccccc" id="svg_10" opacity="1"/>
  <path d="m2464.71,204c0,23.49 0,46.48 0,70.09c68.95,0 137.8,0 206.89,0c0,9.85 0,19.1 0,28.63c-90.1,0 -180.13,0 -270.38,0c0,-9.33 0,-18.6 0,-28.31c10.39,0 20.8,0 31.48,0c0,-48.18 0,-95.92 0,-144.13c-9.93,0 -19.85,0 -30,0c0,-9.58 0,-18.68 0,-28.04c20.55,0 40.97,0 62.01,0c0,33.74 0,67.5 0,101.76z" fill="#cccccc" id="svg_11" opacity="1"/>
  <path d="m491,197.94c34.3,0 68.11,0 102.4,0c0,25.7 0,51.09 0,76.82c4.58,0 8.68,0 13.13,0c0,9.4 0,18.47 0,27.89c-63.23,0 -126.61,0 -190.26,0c0,-34.65 0,-69.39 0,-104.71c24.72,0 49.47,0 74.73,0m44.5,28.06c-29.57,0 -59.14,0 -88.73,0c0,16.61 0,32.67 0,48.65c38.88,0 77.43,0 115.94,0c0,-16.34 0,-32.4 0,-48.65c-8.93,0 -17.57,0 -27.21,0z" fill="#cccccc" id="svg_12" opacity="1"/>
  <path d="m1281.96,247.03c1.63,-1.18 2.96,-2.18 4.96,-3.69c-23.23,0 -45.73,0 -68.57,0c0,-8.81 0,-17.2 0,-25.99c29.32,0 58.72,0 88.61,0c0,-12.96 0,-25.52 0,-38.31c10.1,0 19.7,0 29.79,0c0,12.39 0,24.94 0,37.91c30.51,0 60.56,0 90.98,0c0,8.79 0,17.16 0,25.85c-23,0 -46.09,0 -69.39,0c6.39,9.15 32.5,19.85 69.54,28.67c0,9.72 0,19.5 0,29.84c-17.24,-3.22 -33.16,-9.51 -48.48,-17.44c-15.35,-7.95 -29.78,-17.28 -42.92,-30.26c0,17.09 0,32.99 0,49.14c-9.64,0 -18.9,0 -28.63,0c0,-16.06 0,-32.08 0,-48.96c-26.09,23.99 -55.42,39.99 -89.57,47.77c0,-10.23 0,-19.96 0,-30.2c22.28,-4.57 44.19,-10.86 63.68,-24.33z" fill="#cccccc" id="svg_13" opacity="1"/>
  <path d="m2564.26,36.86c9.79,-0.01 19.09,-0.01 28.87,-0.01c0,9.32 0,18.39 0,27.95c25.84,0 51.23,0 76.84,0c0,9.58 0,18.65 0,28.2c-25.48,0 -50.88,0 -76.49,0c0,9.07 0,17.66 0,26.77c25.46,0 50.85,0 76.47,0c0,9.58 0,18.65 0,27.98c-61.43,0 -122.82,0 -184.45,0c0,-9.23 0,-18.3 0,-27.71c25.49,0 50.76,0 76.36,0c0,-9.05 0,-17.78 0,-26.97c-25.3,0 -50.71,0 -76.35,0c0,-18.87 0,-37.28 0,-55.95c10.23,0 20.3,0 30.83,0c0,9.19 0,18.27 0,27.57c15.38,0 30.3,0 45.85,0c0,-7.77 -0.08,-15.53 0.07,-23.28c0.04,-1.52 0.99,-3.03 2,-4.55z" fill="#cccccc" id="svg_14" opacity="1"/>
  <path d="m2365.96,194.96c2.81,0 5.13,0 7.78,0c0,9.22 0,18.3 0,27.87c-62.64,0 -125.51,0 -188.65,0c0,17.54 0,34.59 0,52.02c18.53,0 36.95,0 55.63,0c0,9.45 0,18.52 0,27.88c-28.89,0 -57.77,0 -86.93,0c0,-10.12 0,-20.07 0,-30.52c-15.31,0 -30.35,0 -45.66,0c0,-9.58 0,-18.65 0,-28.24c15.05,0 30.1,0 45.38,0c0,-7.11 0,-13.7 0,-20.82c-15.1,0 -30.15,0 -45.42,0c0,-9.58 0,-18.65 0,-28.19c85.87,0 171.62,0 257.87,0z" fill="#cccccc" id="svg_15" opacity="1"/>
  <path d="m2548,256.06c-21.1,0 -41.71,0 -62.53,0c0,-30.41 0,-60.34 0,-90.66c61.44,0 122.92,0 184.52,0c0,30.12 0,60.18 0,90.66c-40.63,0 -81.06,0 -121.99,0m35.5,-28.06c18.76,0 37.51,0 56.27,0c0,-11.89 0,-23.27 0,-34.68c-41.51,0 -82.72,0 -123.94,0c0,11.65 0,23.03 0,34.68c22.42,0 44.55,0 67.67,0z" fill="#cccccc" id="svg_16" opacity="1"/>
  <path d="m2727.96,300.82c-0.01,-36.44 -0.01,-72.4 -0.01,-108.76c-10.94,0 -21.53,0 -32.37,0c0,-9.97 0,-19.54 0,-29.5c23.46,0 46.72,0 70.37,0c0,-24.26 0,-48.15 0,-72.47c-23.26,0 -46.68,0 -70.37,0c0,-10 0,-19.57 0,-29.52c11.11,0 22.05,0 33.53,0c0,-8.92 0,-17.48 0,-26.37c10.6,0 20.67,0 31.28,0c0,8.47 0,17.04 0,26.11c12.09,0 23.66,0 35.42,0c0,44.1 0,87.68 0,131.67c-12.24,0 -24.32,0 -36.79,0c0,37.13 0,73.87 0,111.02c-10.01,0 -19.63,0.03 -29.25,-0.07c-0.61,-0.01 -1.21,-1.06 -1.81,-2.11z" fill="#cccccc" id="svg_17" opacity="1"/>
  <path d="m441,182c-8.47,0 -16.45,0 -24.71,0c0,-28.76 0,-57.33 0,-86.2c58.78,0 117.64,0 176.85,0c0,28.55 0,57.09 0,86.2c-50.54,0 -101.09,0 -152.14,0m40.5,-58.22c-11.6,0 -23.19,0 -34.77,0c0,10.33 0,20.07 0,29.94c38.81,0 77.33,0 115.95,0c0,-10.09 0,-19.97 0,-29.94c-26.94,0 -53.56,0 -81.18,0z" fill="#cccccc" id="svg_18" opacity="1"/>
  <path d="m1435,140c12.64,0 24.79,0 37.42,0c0,45.02 0,89.74 0,134.86c7.58,0 14.68,0 22.05,0c0,9.46 0,18.53 0,27.87c-17.34,0 -34.6,0 -52.29,0c0,-44.64 0,-89.37 0,-134.51c-74.84,0 -149.24,0 -223.91,0c0,-9.49 0,-18.57 0,-28.22c72.05,0 144.14,0 216.73,0z" fill="#cccccc" id="svg_19" opacity="1"/>
  <path d="m387.01,273.35c5.47,0 10.44,0 15.7,0c0,9.91 0,19.49 0,29.36c-24.96,0 -50,0 -75.3,0c0,-9.65 0,-19.22 0,-29.36c7.73,0 15.29,0 23.06,0c0,-45.66 0,-90.73 0,-136.29c-7.71,0 -15.29,0 -23.08,0c0,-10.04 0,-19.61 0,-29.6c7.64,0 15.08,0 23.03,0c0,-24.79 0,-49.18 0,-73.93c10.57,0 20.62,0 31.14,0c0,24.32 0,48.72 0,73.7c7.31,0 14.19,0 21.25,0c0,10.17 0,19.75 0,29.69c-6.91,0 -13.68,0 -20.72,0c0,45.55 0,90.74 0,136.43c1.53,0 2.98,0 4.92,0z" fill="#cccccc" id="svg_20" opacity="1"/>
  <path d="m1906,91.55c-31.47,0 -62.44,0 -93.77,0c0,-9.16 0,-18.05 0,-27.41c7.69,0 15.6,0 23.94,0c0,-9.17 0,-17.91 0,-26.97c11,0 21.58,0 32.51,0c0,8.6 0,17.37 0,26.48c9.07,0 17.79,0 26.89,0c0,-8.8 0,-17.56 0,-26.56c10.94,0 21.5,0 32.44,0c0,8.9 0,17.65 0,26.65c9.96,0 19.55,0 29.54,0c0,-8.74 0,-17.49 0,-26.57c10.95,0 21.5,0 32.47,0c0,8.7 0,17.45 0,26.51c9.1,0 17.81,0 26.9,0c0,-8.88 0,-17.64 0,-26.61c10.94,0 21.51,0 32.43,0c0,8.98 0,17.76 0,26.86c9.62,0 18.9,0 28.45,0c0,9.24 0,18.16 0,27.62c-57.1,0 -114.2,0 -171.8,0z" fill="#cccccc" id="svg_21" opacity="1"/>
  <path d="m71.62,123c0,59.62 0,118.75 0,178.09c-10.97,0 -21.43,0 -32.26,0c0,-87.43 0,-174.98 0,-262.81c10.44,0 21.03,0 32.26,0c0,28.02 0,56.12 0,84.72z" fill="#cccccc" id="svg_22" opacity="1" stroke="#cccccc"/>
  <path d="m1413,79.07c-65.13,0 -129.75,0 -194.69,0c0,-16.21 0,-32.27 0,-48.59c10.1,0 20.16,0 30.59,0c0,6.72 0,13.32 0,20.35c74.56,0 148.77,0 223.27,0c0,9.51 0,18.59 0,28.24c-19.45,0 -39.06,0 -59.17,0z" fill="#cccccc" id="svg_23" opacity="1"/>
  <path d="m1465.98,95.94c2.3,0 4.11,0 6.2,0c0,9.38 0,18.46 0,27.8c-84.46,0 -169.05,0 -253.91,0c0,-9.06 0,-18.14 0,-27.8c82.38,0 164.79,0 247.71,0z" fill="#cccccc" id="svg_24" opacity="1"/>
  <path d="m2341.62,72c0,-11.97 0,-23.44 0,-35.24c10.4,0 20.45,0 30.8,0c0,47.67 0,95.21 0,143c-31.5,0 -62.9,0 -94.49,0c0,-9.24 0,-18.31 0,-27.85c21.25,0 42.33,0 63.69,0c0,-26.78 0,-53.1 0,-79.91z" fill="#cccccc" id="svg_25" opacity="1"/>
  <path d="m574,51c6.64,0 12.79,0 19.2,0c0,9.37 0,18.45 0,27.8c-58.83,0 -117.74,0 -176.93,0c0,-15.03 0,-30.09 0,-45.39c10.19,0 20.25,0 30.65,0c0,5.79 0,11.39 0,17.59c42.41,0 84.5,0 127.08,0z" fill="#cccccc" id="svg_26" opacity="1"/>
  <path d="m2261.76,300.89c0,-21.63 0,-42.77 0,-64.22c10.38,0 20.44,0 30.99,0c0,12.7 0,25.26 0,38.15c27.23,0 53.98,0 81.03,0c0,9.41 0,18.49 0,27.91c-1.12,0.08 -2.39,0.26 -3.66,0.26c-34.65,0.01 -69.3,0.03 -103.95,-0.06c-1.47,0 -2.94,-1.01 -4.41,-2.04z" fill="#cccccc" id="svg_27" opacity="1"/>
  <path d="m630.09,303.01c-1.94,0 -3.39,0 -4.98,0c0,-10.02 0,-19.6 0,-29.59c9.27,0 18.34,0 27.74,0c0,-27.67 0,-54.92 0,-82.5c9.87,0 19.42,0 29.35,0c0,37.12 0,74.29 0,112.09c-17.16,0 -34.39,0 -52.11,0z" fill="#cccccc" id="svg_28" opacity="1"/>
  <path d="m2309.01,63c0,22.44 0,44.37 0,66.54c-10.49,0 -20.55,0 -30.82,0c0,-30.98 0,-61.73 0,-92.8c10.07,0 20.14,0 30.82,0c0,8.59 0,17.17 0,26.26z" fill="#cccccc" id="svg_29" opacity="1"/>
  <path d="m2431,64.95c-9.64,0 -18.77,0 -28.23,0c0,-9.28 0,-18.35 0,-27.76c20.47,0 40.96,0 61.7,0c0,9.14 0,18.2 0,27.76c-11.13,0 -22.05,0 -33.47,0z" fill="#cccccc" id="svg_30" opacity="1"/>
  <path d="m663,140.22c-11.8,0 -23.1,0 -34.77,0c0,-9.79 0,-19.5 0,-29.52c18.28,0 36.66,0 55.4,0c0,9.6 0,19.28 0,29.52c-6.64,0 -13.39,0 -20.63,0z" fill="#cccccc" id="svg_31" opacity="1"/>
  <path d="m684,52.99c0,4.48 0,8.45 0,12.76c-18.65,0 -37.14,0 -55.88,0c0,-9.54 0,-19.08 0,-28.88c18.5,0 36.88,0 55.88,0c0,5.11 0,10.37 0,16.12z" fill="#cccccc" id="svg_32" opacity="1"/>
  <path d="m1259.33,199.95c0,2.15 0,3.8 0,5.74c-10.27,0 -20.34,0 -30.74,0c0,-8.67 0,-17.38 0,-26.4c10.06,0 20.1,0 30.74,0c0,6.7 0,13.43 0,20.66z" fill="#cccccc" id="svg_33" opacity="1"/>
  <path d="m1395.04,179c7.46,0 14.43,0 21.68,0c0,8.96 0,17.69 0,26.7c-10.05,0 -20.12,0 -30.47,0c0,-8.72 0,-17.44 0,-26.7c2.74,0 5.51,0 8.79,0z" fill="#cccccc" id="svg_34" opacity="1"/>
 </g>
</svg>