<svg xmlns="http://www.w3.org/2000/svg" viewBox="0 -0.5 1325 169" shape-rendering="crispEdges">
<metadata>Made with Pixels to Svg https://codepen.io/shshaw/pen/XbxvNj</metadata>
<path stroke="#ffffff" d="M0 0h1325M0 1h1325M0 2h1325M0 3h1325M0 4h1325M0 5h1325M0 6h1325M0 7h1325M0 8h1325M0 9h1325M0 10h1325M0 11h1325M0 12h1325M0 13h1325M0 14h1325M0 15h1325M0 16h1325M0 17h1325M0 18h1325M0 19h1325M0 20h1325M0 21h1325M0 22h1325M0 23h537M552 23h773M0 24h203M217 24h320M552 24h773M0 25h203M217 25h113M344 25h22M380 25h157M552 25h639M1205 25h48M1268 25h57M0 26h203M217 26h113M344 26h22M380 26h157M552 26h639M1205 26h48M1268 26h57M0 27h27M42 27h11M141 27h13M198 27h5M217 27h65M307 27h23M344 27h22M380 27h30M526 27h11M552 27h114M782 27h22M819 27h11M845 27h12M872 27h10M897 27h25M936 27h12M962 27h33M1010 27h13M1037 27h12M1077 27h8M1099 27h19M1133 27h58M1205 27h48M1268 27h57M0 28h27M42 28h11M141 28h13M198 28h5M217 28h65M307 28h23M344 28h22M380 28h30M526 28h11M552 28h114M782 28h22M819 28h11M845 28h12M872 28h10M897 28h25M936 28h12M962 28h33M1010 28h13M1037 28h12M1077 28h8M1099 28h19M1133 28h58M1205 28h48M1268 28h57M0 29h27M42 29h11M141 29h13M198 29h5M217 29h65M307 29h23M344 29h22M380 29h30M526 29h11M552 29h114M782 29h22M819 29h11M845 29h12M872 29h10M897 29h25M936 29h12M962 29h33M1010 29h13M1037 29h12M1077 29h8M1099 29h19M1133 29h58M1205 29h48M1268 29h57M0 30h27M42 30h11M141 30h13M198 30h5M270 30h12M307 30h23M344 30h22M380 30h30M526 30h11M552 30h114M782 30h22M819 30h11M845 30h12M872 30h10M897 30h25M936 30h12M962 30h33M1010 30h13M1037 30h12M1077 30h8M1099 30h19M1133 30h58M1205 30h48M1268 30h57M0 31h27M42 31h11M141 31h13M198 31h5M270 31h12M307 31h23M344 31h22M380 31h30M526 31h11M552 31h114M782 31h22M819 31h11M845 31h12M872 31h10M897 31h25M936 31h12M962 31h33M1010 31h13M1037 31h12M1077 31h8M1099 31h19M1133 31h58M1205 31h48M1268 31h57M0 32h27M42 32h11M141 32h13M198 32h5M270 32h12M307 32h23M344 32h22M380 32h30M526 32h11M648 32h18M782 32h22M819 32h11M845 32h12M872 32h10M897 32h25M936 32h12M962 32h33M1010 32h13M1037 32h12M1077 32h8M1099 32h19M1133 32h58M1205 32h48M1268 32h57M0 33h27M42 33h11M141 33h13M198 33h5M270 33h12M307 33h6M399 33h11M526 33h11M648 33h18M782 33h22M819 33h11M845 33h12M872 33h10M897 33h25M936 33h12M962 33h33M1010 33h13M1037 33h12M1077 33h8M1099 33h19M1133 33h58M1205 33h48M1268 33h57M0 34h27M42 34h11M141 34h13M198 34h5M270 34h12M307 34h6M399 34h11M526 34h11M648 34h18M782 34h22M819 34h11M845 34h12M872 34h10M897 34h25M936 34h12M962 34h33M1010 34h13M1037 34h12M1077 34h8M1099 34h19M1133 34h58M1205 34h48M1268 34h57M0 35h27M42 35h11M141 35h13M198 35h5M270 35h12M307 35h6M399 35h11M526 35h11M648 35h18M782 35h22M819 35h11M845 35h12M872 35h10M897 35h25M936 35h12M962 35h33M1010 35h13M1037 35h12M1077 35h8M1099 35h19M1133 35h58M1205 35h48M1268 35h57M0 36h27M42 36h11M141 36h13M198 36h5M270 36h12M307 36h6M399 36h11M526 36h11M648 36h18M782 36h22M819 36h11M845 36h12M872 36h10M897 36h25M989 36h6M1010 36h13M1037 36h12M1077 36h8M1099 36h19M1133 36h58M1205 36h48M1268 36h57M0 37h27M42 37h11M141 37h13M198 37h5M270 37h12M307 37h6M399 37h11M526 37h11M648 37h18M782 37h22M819 37h11M845 37h12M872 37h10M897 37h25M989 37h6M1010 37h13M1037 37h12M1077 37h8M1099 37h19M1133 37h43M1220 37h33M1268 37h57M0 38h27M42 38h11M141 38h13M198 38h5M270 38h12M307 38h6M399 38h11M526 38h11M648 38h18M782 38h12M910 38h12M989 38h6M1010 38h13M1037 38h12M1077 38h8M1166 38h10M1220 38h33M1268 38h57M0 39h27M42 39h11M141 39h13M198 39h5M270 39h12M307 39h6M399 39h11M526 39h11M648 39h18M782 39h12M910 39h12M989 39h6M1010 39h13M1037 39h12M1077 39h8M1166 39h10M1220 39h33M1268 39h57M0 40h27M42 40h11M141 40h13M168 40h35M270 40h43M399 40h61M475 40h62M648 40h18M782 40h12M910 40h12M989 40h6M1010 40h13M1037 40h48M1166 40h10M1220 40h33M1268 40h57M0 41h27M42 41h11M68 41h58M141 41h13M168 41h35M270 41h43M399 41h61M475 41h62M648 41h67M731 41h63M910 41h12M989 41h6M1010 41h13M1037 41h48M1166 41h10M1220 41h33M1268 41h57M0 42h27M42 42h11M68 42h58M141 42h13M168 42h35M270 42h43M399 42h61M475 42h62M648 42h67M731 42h63M910 42h12M989 42h6M1010 42h13M1037 42h48M1166 42h10M1220 42h33M1268 42h57M0 43h27M42 43h11M68 43h58M141 43h13M168 43h145M399 43h61M475 43h62M648 43h67M731 43h63M910 43h12M989 43h6M1010 43h13M1037 43h48M1166 43h10M1220 43h33M1268 43h57M0 44h27M42 44h11M68 44h58M141 44h13M168 44h145M399 44h61M475 44h62M648 44h67M731 44h63M910 44h12M989 44h6M1010 44h13M1037 44h48M1166 44h10M1220 44h33M1268 44h57M0 45h27M42 45h11M68 45h58M141 45h13M168 45h162M344 45h22M380 45h80M475 45h62M648 45h67M731 45h63M910 45h12M989 45h6M1010 45h13M1037 45h48M1166 45h10M1220 45h33M1268 45h57M0 46h27M42 46h11M68 46h58M141 46h13M168 46h162M344 46h22M380 46h30M526 46h189M731 46h63M910 46h12M989 46h6M1010 46h13M1037 46h48M1166 46h10M1220 46h33M1268 46h57M0 47h27M42 47h11M68 47h58M141 47h13M168 47h162M344 47h22M380 47h30M526 47h189M731 47h63M910 47h12M989 47h6M1010 47h13M1037 47h48M1166 47h10M1220 47h33M1268 47h57M0 48h27M42 48h11M68 48h58M141 48h13M168 48h35M270 48h60M344 48h22M380 48h30M526 48h189M731 48h63M910 48h12M989 48h6M1010 48h13M1037 48h48M1166 48h10M1220 48h33M1268 48h57M0 49h27M42 49h11M68 49h58M141 49h13M168 49h35M270 49h60M344 49h22M380 49h30M526 49h189M731 49h63M910 49h38M962 49h33M1010 49h13M1037 49h48M1166 49h10M1220 49h33M1268 49h57M0 50h27M42 50h11M68 50h58M141 50h13M168 50h35M270 50h60M344 50h22M380 50h30M526 50h189M731 50h217M962 50h33M1010 50h13M1037 50h48M1166 50h41M1220 50h33M1268 50h57M0 51h27M42 51h11M68 51h58M141 51h13M168 51h35M270 51h60M344 51h22M380 51h30M526 51h11M648 51h67M731 51h217M962 51h33M1010 51h13M1037 51h81M1133 51h74M1220 51h33M1268 51h57M0 52h27M42 52h11M68 52h58M141 52h13M168 52h35M270 52h43M399 52h11M526 52h11M648 52h67M731 52h217M962 52h33M1010 52h13M1037 52h81M1133 52h74M1220 52h33M1268 52h57M0 53h27M42 53h11M68 53h58M141 53h13M168 53h35M270 53h43M399 53h11M526 53h11M648 53h67M731 53h217M962 53h33M1010 53h13M1037 53h81M1133 53h74M1220 53h33M1268 53h57M0 54h27M42 54h11M68 54h58M141 54h13M168 54h35M270 54h43M399 54h11M526 54h11M648 54h67M731 54h217M962 54h33M1010 54h13M1037 54h12M1077 54h41M1133 54h74M1220 54h33M1268 54h57M0 55h27M42 55h11M68 55h58M141 55h13M168 55h35M270 55h43M399 55h11M526 55h11M648 55h67M731 55h217M962 55h33M1010 55h13M1037 55h12M1077 55h41M1133 55h74M1220 55h33M1268 55h57M0 56h27M42 56h11M68 56h58M141 56h13M168 56h35M270 56h43M399 56h11M526 56h11M648 56h67M731 56h191M989 56h6M1010 56h13M1037 56h12M1077 56h41M1133 56h74M1220 56h33M1268 56h57M0 57h27M42 57h11M68 57h58M141 57h13M168 57h35M270 57h43M399 57h11M526 57h11M648 57h67M731 57h191M989 57h6M1010 57h13M1037 57h12M1077 57h41M1133 57h74M1220 57h33M1268 57h57M0 58h27M42 58h11M68 58h58M141 58h13M168 58h35M270 58h12M307 58h6M399 58h11M526 58h11M648 58h67M731 58h191M989 58h6M1010 58h13M1037 58h12M1077 58h41M1133 58h74M1220 58h8M1295 58h30M0 59h27M42 59h11M68 59h58M141 59h13M168 59h35M270 59h12M307 59h6M399 59h11M424 59h36M475 59h37M526 59h11M648 59h67M731 59h191M989 59h6M1010 59h13M1037 59h12M1077 59h41M1133 59h74M1220 59h8M1295 59h30M0 60h27M42 60h11M68 60h58M141 60h13M168 60h35M270 60h12M307 60h6M399 60h11M424 60h36M475 60h37M526 60h11M648 60h67M731 60h191M989 60h6M1010 60h13M1037 60h12M1077 60h41M1133 60h74M1220 60h8M1295 60h30M0 61h27M42 61h11M68 61h58M141 61h13M168 61h35M217 61h40M270 61h12M307 61h6M399 61h11M424 61h36M475 61h37M526 61h11M648 61h67M731 61h191M989 61h6M1010 61h13M1037 61h12M1077 61h41M1133 61h74M1220 61h8M1295 61h30M0 62h27M42 62h11M68 62h58M141 62h13M168 62h35M217 62h40M270 62h12M307 62h6M399 62h11M424 62h36M475 62h37M526 62h11M648 62h67M731 62h63M910 62h12M989 62h6M1010 62h13M1037 62h12M1077 62h8M1166 62h41M1220 62h8M1295 62h30M0 63h27M42 63h11M68 63h58M141 63h13M168 63h35M217 63h40M270 63h12M307 63h6M399 63h11M424 63h36M475 63h37M526 63h11M648 63h67M731 63h63M910 63h12M989 63h6M1010 63h13M1037 63h12M1077 63h8M1166 63h41M1220 63h8M1295 63h30M0 64h27M42 64h11M68 64h58M141 64h13M168 64h35M217 64h40M270 64h12M307 64h23M344 64h22M380 64h30M424 64h36M475 64h37M526 64h11M648 64h67M731 64h63M910 64h12M989 64h6M1010 64h13M1037 64h12M1077 64h8M1166 64h41M1220 64h8M1295 64h30M0 65h27M42 65h11M68 65h58M141 65h13M168 65h35M217 65h40M270 65h12M307 65h23M344 65h22M380 65h30M424 65h36M475 65h37M526 65h189M731 65h63M910 65h12M989 65h6M1010 65h13M1037 65h12M1077 65h8M1166 65h41M1220 65h8M1295 65h30M0 66h27M42 66h11M68 66h58M141 66h13M168 66h35M217 66h40M270 66h12M307 66h23M344 66h22M380 66h30M424 66h36M475 66h37M526 66h189M731 66h63M910 66h12M989 66h6M1010 66h13M1037 66h12M1077 66h8M1166 66h41M1220 66h8M1295 66h30M0 67h27M42 67h11M68 67h58M141 67h13M168 67h35M217 67h40M270 67h12M307 67h23M344 67h22M380 67h30M424 67h36M475 67h37M526 67h189M731 67h63M910 67h12M989 67h6M1010 67h13M1037 67h25M1077 67h8M1166 67h41M1220 67h8M1295 67h30M0 68h27M42 68h11M68 68h58M141 68h13M168 68h35M217 68h40M270 68h12M307 68h23M344 68h22M380 68h30M424 68h36M475 68h37M526 68h189M731 68h63M910 68h12M936 68h12M962 68h13M989 68h34M1037 68h25M1077 68h8M1166 68h41M1220 68h8M1295 68h30M0 69h27M42 69h11M68 69h58M141 69h13M168 69h35M217 69h40M270 69h12M307 69h23M344 69h22M380 69h30M424 69h36M475 69h37M526 69h189M731 69h63M910 69h12M936 69h12M962 69h13M989 69h34M1037 69h25M1077 69h8M1166 69h41M1220 69h8M1295 69h30M0 70h27M42 70h11M68 70h58M141 70h13M168 70h35M217 70h40M270 70h12M307 70h23M344 70h22M380 70h30M424 70h36M475 70h37M526 70h189M731 70h63M910 70h12M936 70h12M962 70h13M989 70h34M1037 70h25M1077 70h8M1166 70h41M1220 70h8M1295 70h30M0 71h27M42 71h11M68 71h58M141 71h13M168 71h35M217 71h40M270 71h12M307 71h6M344 71h22M399 71h11M424 71h36M475 71h37M526 71h11M648 71h67M731 71h63M910 71h12M936 71h12M962 71h13M989 71h34M1037 71h25M1077 71h8M1166 71h41M1220 71h33M1268 71h57M0 72h27M42 72h11M68 72h58M141 72h13M168 72h35M217 72h40M270 72h43M344 72h22M399 72h138M648 72h67M731 72h63M910 72h12M936 72h12M962 72h13M989 72h34M1037 72h25M1077 72h8M1166 72h41M1220 72h33M1268 72h57M0 73h27M42 73h11M68 73h58M141 73h13M168 73h35M217 73h40M270 73h43M344 73h22M399 73h138M648 73h67M731 73h63M910 73h12M936 73h12M962 73h13M989 73h34M1037 73h25M1077 73h8M1166 73h41M1220 73h33M1268 73h57M0 74h27M42 74h11M68 74h58M141 74h13M168 74h35M217 74h40M270 74h43M344 74h22M399 74h138M648 74h67M731 74h63M910 74h12M936 74h12M962 74h13M989 74h34M1037 74h25M1077 74h8M1166 74h41M1220 74h33M1268 74h57M0 75h27M42 75h11M68 75h58M141 75h13M168 75h35M217 75h40M270 75h43M344 75h22M399 75h138M648 75h67M731 75h113M858 75h64M936 75h12M962 75h13M989 75h34M1037 75h25M1077 75h130M1220 75h33M1268 75h57M0 76h27M42 76h11M141 76h13M168 76h35M217 76h40M270 76h43M344 76h22M399 76h138M648 76h67M731 76h113M858 76h64M936 76h12M962 76h13M989 76h6M1037 76h25M1077 76h130M1220 76h33M1268 76h57M0 77h27M42 77h11M141 77h13M168 77h35M217 77h40M270 77h43M344 77h22M399 77h138M648 77h67M731 77h113M858 77h64M936 77h12M962 77h13M989 77h6M1037 77h25M1077 77h130M1220 77h33M1268 77h57M0 78h27M42 78h11M141 78h13M168 78h35M217 78h40M270 78h43M344 78h22M399 78h11M526 78h11M648 78h67M731 78h113M858 78h64M936 78h12M962 78h13M989 78h6M1037 78h25M1077 78h130M1220 78h33M1268 78h57M0 79h27M42 79h11M141 79h13M168 79h35M217 79h40M270 79h43M344 79h22M399 79h11M526 79h11M648 79h67M731 79h113M858 79h64M936 79h12M962 79h13M989 79h6M1037 79h25M1077 79h130M1220 79h33M1268 79h57M0 80h27M42 80h11M141 80h13M168 80h35M217 80h40M270 80h43M344 80h22M399 80h11M526 80h11M648 80h67M731 80h113M858 80h64M936 80h12M962 80h13M989 80h6M1037 80h25M1077 80h130M1220 80h33M1268 80h57M0 81h27M42 81h11M141 81h13M168 81h35M217 81h40M270 81h43M344 81h22M399 81h11M526 81h11M648 81h67M731 81h113M858 81h64M936 81h12M962 81h13M989 81h6M1037 81h25M1077 81h99M1220 81h33M1268 81h57M0 82h27M42 82h11M141 82h13M168 82h35M217 82h40M270 82h43M344 82h22M399 82h11M526 82h11M648 82h67M731 82h113M858 82h64M936 82h12M962 82h13M989 82h6M1037 82h25M1077 82h8M1166 82h10M1220 82h33M1268 82h57M0 83h27M42 83h11M141 83h13M168 83h35M217 83h40M270 83h140M526 83h11M648 83h67M731 83h63M910 83h12M936 83h12M962 83h13M989 83h6M1037 83h25M1077 83h8M1166 83h10M1220 83h33M1268 83h57M0 84h27M42 84h11M141 84h13M168 84h35M217 84h40M270 84h140M526 84h108M648 84h67M731 84h63M910 84h12M936 84h12M962 84h13M989 84h6M1037 84h25M1077 84h8M1166 84h10M1220 84h33M1268 84h57M0 85h27M42 85h11M141 85h13M198 85h5M270 85h140M526 85h108M648 85h67M731 85h63M910 85h12M936 85h12M962 85h13M989 85h6M1037 85h25M1077 85h8M1166 85h10M1220 85h33M1268 85h57M0 86h27M42 86h11M141 86h13M198 86h5M270 86h140M526 86h108M648 86h67M731 86h63M910 86h12M936 86h12M962 86h13M989 86h6M1037 86h25M1077 86h8M1166 86h10M1220 86h33M1268 86h57M0 87h27M42 87h11M141 87h13M198 87h5M270 87h140M526 87h108M648 87h67M731 87h63M910 87h12M936 87h12M962 87h13M989 87h6M1037 87h25M1077 87h8M1166 87h10M1220 87h33M1268 87h57M0 88h27M42 88h11M141 88h13M198 88h5M270 88h43M399 88h11M526 88h16M556 88h20M589 88h21M624 88h10M648 88h67M731 88h63M910 88h12M936 88h12M962 88h13M989 88h6M1037 88h25M1077 88h8M1166 88h10M1220 88h33M1268 88h57M0 89h27M42 89h11M141 89h13M198 89h5M270 89h43M399 89h11M526 89h16M556 89h20M589 89h21M624 89h10M648 89h67M731 89h63M910 89h12M936 89h12M962 89h13M989 89h73M1077 89h8M1166 89h10M1220 89h33M1268 89h57M0 90h27M42 90h11M68 90h58M141 90h13M198 90h5M270 90h43M399 90h11M526 90h16M556 90h20M589 90h21M624 90h10M648 90h67M731 90h63M910 90h152M1077 90h8M1166 90h10M1220 90h33M1268 90h57M0 91h27M42 91h11M68 91h58M141 91h13M198 91h5M270 91h43M399 91h11M424 91h88M526 91h16M556 91h20M589 91h21M624 91h10M648 91h67M731 91h63M910 91h152M1077 91h8M1166 91h10M1220 91h33M1268 91h57M0 92h27M42 92h11M68 92h58M141 92h13M198 92h5M270 92h43M399 92h11M424 92h88M526 92h16M556 92h20M589 92h21M624 92h10M648 92h67M731 92h63M910 92h152M1077 92h8M1166 92h10M1220 92h33M1268 92h57M0 93h27M42 93h11M68 93h58M141 93h13M198 93h5M270 93h23M307 93h6M399 93h11M424 93h88M526 93h16M556 93h20M589 93h21M624 93h10M648 93h67M731 93h63M910 93h152M1077 93h8M1166 93h10M1220 93h33M1268 93h57M0 94h27M42 94h11M68 94h58M141 94h13M198 94h5M270 94h23M307 94h6M399 94h11M424 94h88M526 94h16M556 94h20M589 94h21M624 94h10M648 94h67M731 94h63M910 94h12M1038 94h24M1077 94h8M1166 94h24M1204 94h49M1268 94h57M0 95h27M42 95h11M68 95h58M141 95h13M198 95h5M270 95h23M307 95h6M399 95h11M424 95h88M526 95h16M556 95h20M589 95h21M624 95h10M648 95h67M731 95h63M910 95h12M1038 95h24M1077 95h8M1099 95h53M1166 95h24M1204 95h49M1268 95h57M0 96h27M42 96h11M68 96h58M141 96h13M198 96h5M270 96h23M307 96h6M399 96h11M424 96h88M526 96h16M556 96h20M589 96h21M624 96h10M648 96h67M731 96h113M858 96h64M1038 96h24M1077 96h8M1099 96h53M1166 96h24M1204 96h49M1268 96h57M0 97h27M42 97h11M68 97h58M141 97h13M198 97h5M270 97h23M307 97h6M399 97h11M424 97h88M526 97h16M556 97h20M589 97h21M624 97h10M648 97h67M731 97h113M858 97h64M1038 97h24M1077 97h8M1099 97h53M1166 97h24M1204 97h49M1268 97h57M0 98h27M42 98h11M68 98h58M141 98h13M198 98h5M270 98h23M307 98h6M399 98h11M424 98h88M526 98h16M556 98h20M589 98h21M624 98h10M648 98h67M731 98h113M858 98h64M1038 98h24M1077 98h8M1099 98h53M1166 98h24M1204 98h49M1268 98h57M0 99h27M42 99h11M68 99h58M141 99h152M307 99h6M399 99h11M424 99h88M526 99h16M556 99h20M589 99h21M624 99h10M648 99h67M731 99h113M858 99h64M1038 99h24M1077 99h8M1099 99h53M1166 99h24M1204 99h49M1268 99h57M0 100h27M42 100h11M68 100h58M141 100h152M307 100h78M399 100h11M424 100h88M526 100h50M589 100h45M648 100h67M731 100h113M858 100h64M1038 100h24M1077 100h8M1099 100h53M1166 100h24M1204 100h49M1268 100h57M0 101h27M42 101h11M68 101h58M141 101h152M307 101h78M399 101h11M424 101h88M526 101h50M589 101h45M648 101h67M731 101h113M858 101h64M1038 101h24M1077 101h8M1099 101h53M1166 101h24M1204 101h49M1268 101h57M0 102h27M42 102h11M68 102h58M141 102h152M307 102h78M399 102h11M424 102h88M526 102h50M589 102h45M648 102h67M731 102h113M858 102h64M1038 102h24M1077 102h8M1099 102h53M1166 102h24M1204 102h49M1268 102h57M0 103h27M42 103h11M68 103h58M141 103h152M307 103h78M399 103h11M424 103h88M526 103h50M589 103h45M648 103h67M731 103h113M858 103h64M1038 103h24M1077 103h8M1099 103h53M1166 103h24M1204 103h49M1268 103h57M0 104h27M42 104h11M68 104h58M141 104h16M266 104h27M307 104h78M399 104h11M424 104h88M526 104h11M629 104h5M648 104h67M731 104h63M910 104h12M1038 104h24M1077 104h8M1099 104h53M1166 104h24M1204 104h49M1268 104h57M0 105h27M42 105h11M68 105h58M141 105h16M266 105h27M307 105h78M399 105h11M424 105h88M526 105h11M629 105h5M648 105h67M731 105h63M910 105h12M1038 105h24M1077 105h8M1099 105h53M1166 105h24M1204 105h49M1268 105h57M0 106h27M42 106h11M68 106h58M141 106h16M266 106h27M307 106h78M399 106h11M424 106h88M526 106h11M629 106h5M648 106h67M731 106h63M910 106h12M1038 106h24M1077 106h8M1099 106h53M1166 106h24M1204 106h49M1268 106h57M0 107h27M42 107h11M68 107h58M141 107h16M266 107h27M307 107h78M399 107h11M424 107h88M526 107h11M629 107h5M648 107h67M731 107h63M910 107h12M1038 107h24M1077 107h8M1099 107h53M1166 107h24M1204 107h49M1268 107h57M0 108h27M42 108h11M68 108h58M141 108h16M266 108h27M307 108h78M399 108h11M424 108h88M526 108h11M629 108h5M648 108h67M731 108h63M910 108h31M956 108h106M1077 108h8M1099 108h53M1166 108h24M1204 108h49M1268 108h57M0 109h27M42 109h11M68 109h58M141 109h16M266 109h27M307 109h6M399 109h11M526 109h11M629 109h5M648 109h67M731 109h63M910 109h31M956 109h106M1077 109h8M1166 109h24M1204 109h49M1268 109h57M0 110h27M42 110h11M68 110h58M141 110h16M266 110h27M307 110h6M399 110h11M526 110h11M629 110h5M648 110h67M731 110h63M910 110h31M956 110h106M1077 110h8M1166 110h24M1204 110h49M1268 110h57M0 111h27M42 111h11M68 111h58M141 111h16M266 111h27M307 111h6M399 111h11M526 111h11M629 111h5M648 111h67M731 111h63M910 111h31M956 111h106M1077 111h8M1166 111h24M1204 111h49M1268 111h57M0 112h27M42 112h11M68 112h58M141 112h16M266 112h27M307 112h6M399 112h11M526 112h11M629 112h5M648 112h67M731 112h63M910 112h31M956 112h106M1077 112h8M1166 112h24M1204 112h49M1268 112h57M0 113h27M42 113h11M68 113h58M141 113h16M266 113h27M307 113h6M399 113h11M526 113h11M629 113h5M648 113h67M731 113h63M910 113h31M956 113h32M1003 113h59M1077 113h8M1166 113h24M1204 113h49M1268 113h57M0 114h27M42 114h11M68 114h58M141 114h16M266 114h27M307 114h6M399 114h11M526 114h11M629 114h5M648 114h67M731 114h63M910 114h31M956 114h32M1003 114h59M1077 114h8M1166 114h24M1204 114h49M1268 114h57M0 115h27M42 115h11M68 115h58M141 115h16M266 115h27M307 115h6M399 115h11M526 115h11M629 115h5M648 115h67M731 115h63M910 115h31M956 115h32M1003 115h59M1077 115h8M1166 115h24M1204 115h49M1268 115h57M0 116h27M42 116h11M68 116h58M141 116h16M266 116h27M307 116h6M399 116h11M526 116h40M600 116h34M648 116h67M731 116h101M871 116h51M956 116h32M1003 116h59M1077 116h8M1166 116h24M1204 116h49M1268 116h57M0 117h27M42 117h11M68 117h58M141 117h16M172 117h80M266 117h27M307 117h6M399 117h11M526 117h39M601 117h33M648 117h67M731 117h99M873 117h49M956 117h32M1003 117h59M1077 117h8M1166 117h24M1204 117h49M1268 117h57M0 118h27M42 118h11M68 118h58M141 118h16M172 118h80M266 118h27M307 118h6M399 118h11M526 118h37M603 118h31M648 118h67M731 118h97M875 118h47M956 118h32M1003 118h59M1077 118h8M1166 118h24M1204 118h49M1268 118h57M0 119h27M42 119h11M68 119h58M141 119h16M172 119h80M266 119h27M307 119h6M399 119h11M526 119h35M604 119h30M648 119h67M731 119h95M877 119h45M956 119h32M1003 119h59M1077 119h8M1166 119h24M1204 119h49M1268 119h57M0 120h27M42 120h11M68 120h58M141 120h16M172 120h80M266 120h27M307 120h6M399 120h11M526 120h34M606 120h28M648 120h67M731 120h93M879 120h43M956 120h32M1003 120h59M1077 120h8M1166 120h24M1204 120h49M1268 120h57M0 121h27M42 121h11M68 121h58M141 121h16M172 121h80M266 121h27M307 121h6M326 121h84M526 121h32M608 121h26M648 121h67M731 121h91M882 121h40M956 121h32M1003 121h59M1077 121h8M1166 121h24M1204 121h49M1268 121h57M0 122h27M42 122h11M68 122h58M141 122h16M172 122h80M266 122h27M307 122h6M326 122h134M475 122h80M575 122h1M589 122h1M611 122h23M648 122h67M731 122h88M858 122h2M885 122h37M956 122h32M1003 122h59M1077 122h113M1204 122h49M1268 122h57M0 123h27M42 123h11M68 123h58M141 123h16M172 123h80M266 123h27M307 123h6M326 123h134M475 123h78M574 123h2M589 123h2M613 123h21M648 123h67M731 123h85M843 123h1M858 123h3M888 123h34M956 123h32M1003 123h59M1077 123h113M1204 123h49M1268 123h57M0 124h27M42 124h11M68 124h58M141 124h16M172 124h80M266 124h27M307 124h6M326 124h134M475 124h75M573 124h3M589 124h3M616 124h18M648 124h67M731 124h81M841 124h3M858 124h5M891 124h31M956 124h32M1003 124h59M1077 124h113M1204 124h49M1268 124h57M0 125h27M42 125h11M68 125h58M141 125h16M172 125h80M266 125h27M307 125h6M326 125h134M475 125h72M572 125h4M589 125h4M619 125h15M648 125h67M731 125h77M840 125h4M858 125h6M896 125h26M956 125h32M1003 125h59M1077 125h113M1204 125h49M1268 125h57M0 126h27M42 126h11M68 126h58M141 126h16M172 126h80M266 126h27M307 126h6M326 126h134M475 126h68M571 126h5M589 126h6M623 126h11M648 126h67M731 126h71M838 126h6M858 126h8M901 126h21M956 126h32M1003 126h59M1077 126h113M1204 126h49M1268 126h57M0 127h27M42 127h11M141 127h16M172 127h80M266 127h27M307 127h6M326 127h134M475 127h64M569 127h7M589 127h7M628 127h6M648 127h18M782 127h12M836 127h8M858 127h9M910 127h12M956 127h32M1003 127h59M1077 127h113M1204 127h49M1268 127h57M0 128h27M42 128h11M141 128h16M172 128h80M266 128h27M307 128h6M326 128h134M475 128h62M568 128h8M589 128h8M629 128h5M648 128h18M782 128h12M835 128h9M858 128h11M910 128h12M956 128h32M1003 128h59M1077 128h113M1204 128h49M1268 128h57M0 129h27M42 129h11M141 129h9M273 129h8M307 129h6M399 129h61M526 129h11M566 129h10M589 129h10M629 129h5M658 129h8M782 129h12M833 129h11M858 129h13M910 129h31M980 129h8M1038 129h11M1167 129h23M1204 129h22M1296 129h29M0 130h27M42 130h11M141 130h9M273 130h8M307 130h6M399 130h61M526 130h11M565 130h11M589 130h12M629 130h5M658 130h8M782 130h12M831 130h13M858 130h15M910 130h31M980 130h8M1038 130h11M1167 130h23M1204 130h22M1296 130h29M0 131h27M42 131h11M141 131h9M273 131h8M307 131h6M399 131h61M526 131h11M563 131h13M589 131h13M629 131h5M658 131h8M782 131h12M829 131h15M858 131h17M910 131h31M980 131h8M1038 131h11M1167 131h23M1204 131h22M1296 131h29M0 132h27M42 132h11M141 132h9M273 132h8M307 132h6M399 132h61M526 132h11M562 132h14M589 132h15M629 132h5M658 132h8M782 132h12M827 132h17M858 132h19M910 132h31M980 132h8M1038 132h11M1167 132h23M1204 132h22M1296 132h29M0 133h27M42 133h11M141 133h9M273 133h8M307 133h6M399 133h61M526 133h11M560 133h16M589 133h17M629 133h5M658 133h8M782 133h12M824 133h20M858 133h22M910 133h31M980 133h8M1038 133h11M1167 133h23M1204 133h22M1296 133h29M0 134h27M42 134h11M141 134h9M273 134h8M307 134h6M399 134h61M526 134h11M558 134h18M589 134h19M629 134h5M658 134h8M782 134h12M821 134h23M858 134h24M910 134h31M980 134h8M1038 134h11M1167 134h23M1204 134h22M1296 134h29M0 135h27M42 135h11M141 135h9M273 135h8M307 135h6M399 135h61M526 135h11M556 135h20M589 135h21M629 135h5M658 135h8M782 135h12M819 135h25M858 135h27M910 135h31M980 135h8M1038 135h11M1167 135h23M1204 135h22M1296 135h29M0 136h27M42 136h11M141 136h9M273 136h8M307 136h6M399 136h61M526 136h11M554 136h22M589 136h23M629 136h5M658 136h8M782 136h12M815 136h29M858 136h30M910 136h31M980 136h8M1038 136h11M1167 136h23M1204 136h22M1296 136h29M0 137h27M42 137h11M141 137h9M273 137h8M307 137h6M399 137h61M526 137h11M552 137h24M589 137h25M629 137h5M658 137h8M782 137h12M812 137h32M858 137h34M910 137h31M980 137h8M1038 137h11M1167 137h23M1204 137h22M1296 137h29M0 138h27M42 138h11M141 138h9M273 138h8M307 138h6M399 138h61M526 138h11M549 138h27M589 138h28M629 138h5M658 138h8M782 138h12M808 138h36M858 138h37M910 138h31M980 138h8M1038 138h11M1167 138h23M1204 138h22M1296 138h29M0 139h27M42 139h11M141 139h9M273 139h8M307 139h6M399 139h61M526 139h11M547 139h29M589 139h31M629 139h5M658 139h8M782 139h12M803 139h41M858 139h42M910 139h31M980 139h8M1038 139h11M1167 139h23M1204 139h22M1296 139h29M0 140h27M42 140h11M141 140h9M273 140h8M307 140h6M399 140h61M526 140h11M544 140h32M589 140h34M629 140h5M658 140h8M782 140h12M797 140h47M858 140h48M910 140h31M980 140h8M1038 140h11M1167 140h23M1204 140h22M1296 140h29M0 141h150M273 141h8M307 141h6M399 141h61M526 141h11M540 141h36M589 141h38M629 141h5M658 141h186M858 141h83M980 141h8M1038 141h11M1167 141h23M1204 141h22M1296 141h29M0 142h1325M0 143h1325M0 144h1325M0 145h1325M0 146h1325M0 147h1325M0 148h1325M0 149h1325M0 150h1325M0 151h1325M0 152h1325M0 153h1325M0 154h1325M0 155h1325M0 156h1325M0 157h1325M0 158h1325M0 159h1325M0 160h1325M0 161h1325M0 162h1325M0 163h1325M0 164h1325M0 165h1325M0 166h1325M0 167h1325M0 168h1325" />
<path stroke="#fafafa" d="M537 23h1M537 64h1M922 89h1M858 121h1M812 124h1M570 126h1" />
<path stroke="#e7e7e7" d="M538 23h13M398 33h1M398 34h1M398 35h1M398 36h1M398 37h1M398 38h1M398 39h1M398 40h1M398 41h1M398 42h1M398 43h1M398 52h1M398 53h1M398 54h1M398 55h1M398 56h1M398 57h1M398 58h1M398 59h1M398 60h1M398 61h1M398 62h1M538 64h110M398 71h1M398 72h1M398 73h1M398 74h1M398 75h1M398 76h1M398 77h1M398 78h1M398 79h1M398 80h1M398 81h1M398 89h1M398 90h1M398 91h1M398 92h1M398 93h1M398 94h1M398 95h1M398 96h1M398 97h1M398 98h1M398 99h1M398 100h1M398 101h1M398 102h1M398 103h1M398 104h1M157 105h1M398 105h1M157 106h1M398 106h1M157 107h1M398 107h1M922 107h19M956 107h81M157 108h1M398 108h1M157 109h1M398 109h1M157 110h1M398 110h1M157 111h1M398 111h1M157 112h1M398 112h1M157 113h1M398 113h1M157 114h1M398 114h1M157 115h1M398 115h1M157 116h1M398 116h1M157 117h1M398 117h1M157 118h1M398 118h1M157 119h1M398 119h1M157 120h1M157 121h1M157 122h1M157 123h1M157 124h1M157 125h1M571 125h1M157 126h1M157 127h1M157 128h1M398 130h1M398 131h1M398 132h1M398 133h1M398 134h1M398 135h1M398 136h1M398 137h1M398 138h1M398 139h1M398 140h1M398 141h1" />
<path stroke="#fbfbfb" d="M551 23h1M168 85h29M217 85h40M988 89h1M1037 107h1M830 117h1M884 122h1M887 123h1M543 126h1" />
<path stroke="#b6b6b6" d="M203 24h1M610 99h1" />
<path stroke="#3b3b3b" d="M204 24h12M896 27h1M896 28h1M896 29h1M896 30h1M896 31h1M896 32h1M896 33h1M896 34h1M896 35h1M896 36h1M896 37h1M794 115h40M869 115h40M815 124h1" />
<path stroke="#b9b9b9" d="M216 24h1M293 93h1M886 123h1M801 139h1M794 140h1" />
<path stroke="#c3c3c3" d="M537 24h1M537 25h1M537 26h1M537 27h1M537 28h1M537 29h1M537 30h1M537 31h1M537 32h1M537 33h1M537 34h1M537 35h1M537 36h1M537 37h1M537 38h1M537 39h1M537 40h1M537 41h1M730 41h1M537 42h1M730 42h1M537 43h1M730 43h1M537 44h1M730 44h1M730 45h1M730 46h1M730 47h1M730 48h1M730 49h1M730 50h1M730 51h1M537 52h1M730 52h1M537 53h1M730 53h1M537 54h1M730 54h1M537 55h1M730 55h1M537 56h1M730 56h1M537 57h1M730 57h1M537 58h1M730 58h1M537 59h1M730 59h1M537 60h1M730 60h1M537 61h1M730 61h1M537 62h1M730 62h1M537 63h1M730 63h1M730 64h1M730 65h1M730 66h1M730 67h1M730 68h1M730 69h1M730 70h1M537 71h1M730 71h1M537 72h1M730 72h1M537 73h1M730 73h1M537 74h1M730 74h1M537 75h1M730 75h1M537 76h1M730 76h1M537 77h1M730 77h1M537 78h1M730 78h1M537 79h1M730 79h1M537 80h1M730 80h1M537 81h1M730 81h1M537 82h1M730 82h1M730 83h1M730 84h1M730 85h1M730 86h1M730 87h1M730 88h1M730 89h1M730 90h1M730 91h1M730 92h1M730 93h1M730 94h1M730 95h1M730 96h1M730 97h1M730 98h1M730 99h1M730 100h1M730 101h1M730 102h1M730 103h1M730 104h1M537 105h1M730 105h1M537 106h1M730 106h1M537 107h1M730 107h1M537 108h1M730 108h1M537 109h1M730 109h1M537 110h1M730 110h1M537 111h1M730 111h1M537 112h1M730 112h1M537 113h1M730 113h1M537 114h1M730 114h1M537 115h1M730 115h1M730 116h1M730 117h1M730 118h1M730 119h1M730 120h1M730 121h1M730 122h1M730 123h1M730 124h1M813 124h1M730 125h1M730 126h1M157 129h1M537 129h1M537 130h1M537 131h1M537 132h1M537 133h1M537 134h1M537 135h1M817 135h1M537 136h1M537 137h1M537 138h1M537 139h1M537 140h1" />
<path stroke="#000000" d="M538 24h13M204 25h12M538 25h13M204 26h12M331 26h12M367 26h12M538 26h13M1192 26h12M1254 26h13M155 27h42M204 27h12M283 27h24M331 27h12M367 27h12M411 27h115M538 27h13M805 27h13M831 27h13M858 27h13M883 27h13M923 27h12M949 27h12M996 27h13M1024 27h12M1050 27h26M1086 27h12M1119 27h13M1192 27h12M1254 27h13M28 28h14M54 28h87M155 28h42M204 28h12M283 28h24M331 28h12M367 28h12M411 28h115M538 28h13M666 28h115M805 28h13M831 28h13M858 28h13M883 28h13M923 28h12M949 28h12M996 28h13M1024 28h12M1050 28h26M1086 28h12M1119 28h13M1192 28h12M1254 28h13M28 29h14M54 29h87M155 29h42M204 29h12M283 29h24M331 29h12M367 29h12M411 29h115M538 29h13M666 29h115M805 29h13M831 29h13M858 29h13M883 29h13M923 29h12M949 29h12M996 29h13M1024 29h12M1050 29h26M1086 29h12M1119 29h13M1192 29h12M1254 29h13M28 30h14M54 30h87M155 30h42M204 30h65M283 30h24M331 30h12M367 30h12M411 30h115M538 30h13M666 30h115M805 30h13M831 30h13M858 30h13M883 30h13M923 30h12M949 30h12M996 30h13M1024 30h12M1050 30h26M1086 30h12M1119 30h13M1192 30h12M1254 30h13M28 31h14M54 31h87M155 31h42M204 31h65M283 31h24M331 31h12M367 31h12M411 31h115M538 31h13M666 31h115M805 31h13M831 31h13M858 31h13M883 31h13M923 31h12M949 31h12M996 31h13M1024 31h12M1050 31h26M1086 31h12M1119 31h13M1192 31h12M1254 31h13M28 32h14M54 32h87M155 32h42M204 32h65M283 32h24M331 32h12M367 32h12M411 32h115M538 32h13M666 32h115M805 32h13M831 32h13M858 32h13M883 32h13M923 32h12M949 32h12M996 32h13M1024 32h12M1050 32h26M1086 32h12M1119 32h13M1192 32h12M1254 32h13M28 33h14M54 33h87M155 33h42M204 33h65M283 33h24M313 33h85M411 33h115M538 33h110M666 33h115M805 33h13M831 33h13M858 33h13M883 33h13M923 33h12M949 33h12M996 33h13M1024 33h12M1050 33h26M1086 33h12M1119 33h13M1192 33h12M1254 33h13M28 34h14M54 34h87M155 34h42M204 34h65M283 34h24M313 34h85M411 34h115M538 34h110M666 34h115M805 34h13M831 34h13M858 34h13M883 34h13M923 34h12M949 34h12M996 34h13M1024 34h12M1050 34h26M1086 34h12M1119 34h13M1192 34h12M1254 34h13M28 35h14M54 35h87M155 35h42M204 35h65M283 35h24M313 35h85M411 35h115M538 35h110M666 35h115M805 35h13M831 35h13M858 35h13M883 35h13M923 35h12M949 35h12M996 35h13M1024 35h12M1050 35h26M1086 35h12M1119 35h13M1192 35h12M1254 35h13M28 36h14M54 36h87M155 36h42M204 36h65M283 36h24M313 36h85M411 36h115M538 36h110M666 36h115M805 36h13M831 36h13M858 36h13M883 36h13M923 36h65M996 36h13M1024 36h12M1050 36h26M1086 36h12M1119 36h13M1192 36h12M1254 36h13M28 37h14M54 37h87M155 37h42M204 37h65M283 37h24M313 37h85M411 37h115M538 37h110M666 37h115M805 37h13M831 37h13M858 37h13M883 37h13M923 37h65M996 37h13M1024 37h12M1050 37h26M1086 37h12M1119 37h13M1177 37h43M1254 37h13M28 38h14M54 38h87M155 38h42M204 38h65M283 38h24M313 38h85M411 38h115M538 38h110M666 38h115M805 38h13M831 38h13M858 38h13M883 38h13M923 38h65M996 38h13M1024 38h12M1050 38h26M1086 38h12M1119 38h13M1177 38h43M1254 38h13M28 39h14M54 39h87M155 39h12M204 39h65M313 39h85M460 39h14M538 39h110M666 39h115M794 39h115M923 39h65M996 39h13M1024 39h12M1086 39h79M1177 39h43M1254 39h13M28 40h14M54 40h14M127 40h14M155 40h12M204 40h65M313 40h85M460 40h14M538 40h110M666 40h115M794 40h115M923 40h65M996 40h13M1024 40h12M1086 40h79M1177 40h43M1254 40h13M28 41h14M54 41h14M127 41h14M155 41h12M204 41h65M313 41h85M460 41h14M538 41h110M716 41h14M794 41h115M923 41h65M996 41h13M1024 41h12M1086 41h79M1177 41h43M1254 41h13M28 42h14M54 42h14M127 42h14M155 42h12M313 42h85M460 42h14M538 42h110M716 42h14M794 42h115M923 42h65M996 42h13M1024 42h12M1086 42h79M1177 42h43M1254 42h13M28 43h14M54 43h14M127 43h14M155 43h12M313 43h85M460 43h14M538 43h110M716 43h14M794 43h115M923 43h65M996 43h13M1024 43h12M1086 43h79M1177 43h43M1254 43h13M28 44h14M54 44h14M127 44h14M155 44h12M331 44h12M367 44h12M460 44h14M538 44h110M716 44h14M794 44h115M923 44h65M996 44h13M1024 44h12M1086 44h79M1177 44h43M1254 44h13M28 45h14M54 45h14M127 45h14M155 45h12M331 45h12M367 45h12M460 45h14M716 45h14M794 45h115M923 45h65M996 45h13M1024 45h12M1086 45h79M1177 45h43M1254 45h13M28 46h14M54 46h14M127 46h14M155 46h12M331 46h12M367 46h12M411 46h115M716 46h14M794 46h115M923 46h65M996 46h13M1024 46h12M1086 46h79M1177 46h43M1254 46h13M28 47h14M54 47h14M127 47h14M155 47h12M331 47h12M367 47h12M411 47h115M716 47h14M794 47h115M923 47h65M996 47h13M1024 47h12M1086 47h79M1177 47h43M1254 47h13M28 48h14M54 48h14M127 48h14M155 48h12M204 48h65M331 48h12M367 48h12M411 48h115M716 48h14M794 48h115M949 48h12M996 48h13M1024 48h12M1086 48h79M1177 48h43M1254 48h13M28 49h14M54 49h14M127 49h14M155 49h12M204 49h65M331 49h12M367 49h12M411 49h115M716 49h14M794 49h115M949 49h12M996 49h13M1024 49h12M1086 49h79M1208 49h12M1254 49h13M28 50h14M54 50h14M127 50h14M155 50h12M204 50h65M331 50h12M367 50h12M411 50h115M716 50h14M949 50h12M996 50h13M1024 50h12M1086 50h79M1208 50h12M1254 50h13M28 51h14M54 51h14M127 51h14M155 51h12M204 51h65M331 51h12M367 51h12M411 51h115M716 51h14M949 51h12M996 51h13M1024 51h12M1119 51h13M1208 51h12M1254 51h13M28 52h14M54 52h14M127 52h14M155 52h12M204 52h65M313 52h85M411 52h115M538 52h110M716 52h14M949 52h12M996 52h13M1024 52h12M1119 52h13M1208 52h12M1254 52h13M28 53h14M54 53h14M127 53h14M155 53h12M204 53h65M313 53h85M411 53h115M538 53h110M716 53h14M949 53h12M996 53h13M1024 53h12M1119 53h13M1208 53h12M1254 53h13M28 54h14M54 54h14M127 54h14M155 54h12M204 54h65M313 54h85M411 54h115M538 54h110M716 54h14M949 54h12M996 54h13M1024 54h12M1119 54h13M1208 54h12M1254 54h13M28 55h14M54 55h14M127 55h14M155 55h12M204 55h65M313 55h85M411 55h115M538 55h110M716 55h14M949 55h12M996 55h13M1024 55h12M1050 55h26M1119 55h13M1208 55h12M1254 55h13M28 56h14M54 56h14M127 56h14M155 56h12M204 56h65M313 56h85M411 56h115M538 56h110M716 56h14M949 56h12M996 56h13M1024 56h12M1050 56h26M1119 56h13M1208 56h12M1254 56h13M28 57h14M54 57h14M127 57h14M155 57h12M204 57h65M313 57h85M411 57h115M538 57h110M716 57h14M923 57h65M996 57h13M1024 57h12M1050 57h26M1119 57h13M1208 57h12M1254 57h13M28 58h14M54 58h14M127 58h14M155 58h12M204 58h65M313 58h85M411 58h13M460 58h14M513 58h13M538 58h110M716 58h14M923 58h65M996 58h13M1024 58h12M1050 58h26M1119 58h13M1208 58h12M1254 58h13M28 59h14M54 59h14M127 59h14M155 59h12M204 59h65M283 59h24M313 59h85M411 59h13M460 59h14M513 59h13M538 59h110M716 59h14M923 59h65M996 59h13M1024 59h12M1050 59h26M1119 59h13M1208 59h12M1229 59h65M28 60h14M54 60h14M127 60h14M155 60h12M204 60h12M258 60h11M283 60h24M313 60h85M411 60h13M460 60h14M513 60h13M538 60h110M716 60h14M923 60h65M996 60h13M1024 60h12M1050 60h26M1119 60h13M1208 60h12M1229 60h65M28 61h14M54 61h14M127 61h14M155 61h12M204 61h12M258 61h11M283 61h24M313 61h85M411 61h13M460 61h14M513 61h13M538 61h110M716 61h14M923 61h65M996 61h13M1024 61h12M1050 61h26M1119 61h13M1208 61h12M1229 61h65M28 62h14M54 62h14M127 62h14M155 62h12M204 62h12M258 62h11M283 62h24M313 62h85M411 62h13M460 62h14M513 62h13M538 62h110M716 62h14M923 62h65M996 62h13M1024 62h12M1050 62h26M1086 62h79M1208 62h12M1229 62h65M28 63h14M54 63h14M127 63h14M155 63h12M204 63h12M258 63h11M283 63h24M331 63h12M367 63h12M411 63h13M460 63h14M513 63h13M538 63h110M716 63h14M794 63h115M923 63h65M996 63h13M1024 63h12M1050 63h26M1086 63h79M1208 63h12M1229 63h65M28 64h14M54 64h14M127 64h14M155 64h12M204 64h12M258 64h11M283 64h24M331 64h12M367 64h12M411 64h13M460 64h14M513 64h13M716 64h14M794 64h115M923 64h65M996 64h13M1024 64h12M1050 64h26M1086 64h79M1208 64h12M1229 64h65M28 65h14M54 65h14M127 65h14M155 65h12M204 65h12M258 65h11M283 65h24M331 65h12M367 65h12M411 65h13M460 65h14M513 65h13M716 65h14M794 65h115M923 65h65M996 65h13M1024 65h12M1050 65h26M1086 65h79M1208 65h12M1229 65h65M28 66h14M54 66h14M127 66h14M155 66h12M204 66h12M258 66h11M283 66h24M331 66h12M367 66h12M411 66h13M460 66h14M513 66h13M716 66h14M794 66h115M923 66h65M996 66h13M1024 66h12M1063 66h13M1086 66h79M1208 66h12M1229 66h65M28 67h14M54 67h14M127 67h14M155 67h12M204 67h12M258 67h11M283 67h24M331 67h12M367 67h12M411 67h13M460 67h14M513 67h13M716 67h14M794 67h115M923 67h65M1024 67h12M1063 67h13M1086 67h79M1208 67h12M1229 67h65M28 68h14M54 68h14M127 68h14M155 68h12M204 68h12M258 68h11M283 68h24M331 68h12M367 68h12M411 68h13M460 68h14M513 68h13M716 68h14M794 68h115M923 68h12M949 68h12M976 68h12M1024 68h12M1063 68h13M1086 68h79M1208 68h12M1229 68h65M28 69h14M54 69h14M127 69h14M155 69h12M204 69h12M258 69h11M283 69h24M331 69h12M367 69h12M411 69h13M460 69h14M513 69h13M716 69h14M794 69h115M923 69h12M949 69h12M976 69h12M1024 69h12M1063 69h13M1086 69h79M1208 69h12M1229 69h65M28 70h14M54 70h14M127 70h14M155 70h12M204 70h12M258 70h11M283 70h24M331 70h12M367 70h12M411 70h13M460 70h14M513 70h13M716 70h14M794 70h115M923 70h12M949 70h12M976 70h12M1024 70h12M1063 70h13M1086 70h79M1208 70h12M1229 70h65M28 71h14M54 71h14M127 71h14M155 71h12M204 71h12M258 71h11M313 71h30M367 71h31M538 71h110M716 71h14M794 71h115M923 71h12M949 71h12M976 71h12M1024 71h12M1063 71h13M1086 71h79M1208 71h12M1254 71h13M28 72h14M54 72h14M127 72h14M155 72h12M204 72h12M258 72h11M313 72h30M367 72h31M538 72h110M716 72h14M794 72h115M923 72h12M949 72h12M976 72h12M1024 72h12M1063 72h13M1086 72h79M1208 72h12M1254 72h13M28 73h14M54 73h14M127 73h14M155 73h12M204 73h12M258 73h11M313 73h30M367 73h31M538 73h110M716 73h14M794 73h115M923 73h12M949 73h12M976 73h12M1024 73h12M1063 73h13M1086 73h79M1208 73h12M1254 73h13M28 74h14M54 74h14M127 74h14M155 74h12M204 74h12M258 74h11M313 74h30M367 74h31M538 74h110M716 74h14M794 74h115M923 74h12M949 74h12M976 74h12M1024 74h12M1063 74h13M1208 74h12M1254 74h13M28 75h14M54 75h14M127 75h14M155 75h12M204 75h12M258 75h11M313 75h30M367 75h31M538 75h110M716 75h14M845 75h12M923 75h12M949 75h12M976 75h12M1024 75h12M1063 75h13M1208 75h12M1254 75h13M28 76h14M54 76h14M127 76h14M155 76h12M204 76h12M258 76h11M313 76h30M367 76h31M538 76h110M716 76h14M845 76h12M923 76h12M949 76h12M976 76h12M996 76h40M1063 76h13M1208 76h12M1254 76h13M28 77h14M54 77h87M155 77h12M204 77h12M258 77h11M313 77h30M367 77h31M538 77h110M716 77h14M845 77h12M923 77h12M949 77h12M976 77h12M996 77h40M1063 77h13M1208 77h12M1254 77h13M28 78h14M54 78h87M155 78h12M204 78h12M258 78h11M313 78h30M367 78h31M538 78h110M716 78h14M845 78h12M923 78h12M949 78h12M976 78h12M996 78h40M1063 78h13M1208 78h12M1254 78h13M28 79h14M54 79h87M155 79h12M204 79h12M258 79h11M313 79h30M367 79h31M411 79h115M538 79h110M716 79h14M845 79h12M923 79h12M949 79h12M976 79h12M996 79h40M1063 79h13M1208 79h12M1254 79h13M28 80h14M54 80h87M155 80h12M204 80h12M258 80h11M313 80h30M367 80h31M411 80h115M538 80h110M716 80h14M845 80h12M923 80h12M949 80h12M976 80h12M996 80h40M1063 80h13M1208 80h12M1254 80h13M28 81h14M54 81h87M155 81h12M204 81h12M258 81h11M313 81h30M367 81h31M411 81h115M538 81h110M716 81h14M845 81h12M923 81h12M949 81h12M976 81h12M996 81h40M1063 81h13M1177 81h43M1254 81h13M28 82h14M54 82h87M155 82h12M204 82h12M258 82h11M411 82h115M538 82h110M716 82h14M845 82h12M923 82h12M949 82h12M976 82h12M996 82h40M1063 82h13M1086 82h79M1177 82h43M1254 82h13M28 83h14M54 83h87M155 83h12M204 83h12M258 83h11M411 83h115M635 83h13M716 83h14M794 83h115M923 83h12M949 83h12M976 83h12M996 83h40M1063 83h13M1086 83h79M1177 83h43M1254 83h13M28 84h14M54 84h87M155 84h12M204 84h12M258 84h11M411 84h115M635 84h13M716 84h14M794 84h115M923 84h12M949 84h12M976 84h12M996 84h40M1063 84h13M1086 84h79M1177 84h43M1254 84h13M28 85h14M54 85h87M155 85h12M204 85h12M258 85h11M411 85h115M635 85h13M716 85h14M794 85h115M923 85h12M949 85h12M976 85h12M996 85h40M1063 85h13M1086 85h79M1177 85h43M1254 85h13M28 86h14M54 86h87M155 86h42M204 86h65M411 86h115M635 86h13M716 86h14M794 86h115M923 86h12M949 86h12M976 86h12M996 86h40M1063 86h13M1086 86h79M1177 86h43M1254 86h13M28 87h14M54 87h87M155 87h42M204 87h65M411 87h115M635 87h13M716 87h14M794 87h115M923 87h12M949 87h12M976 87h12M996 87h40M1063 87h13M1086 87h79M1177 87h43M1254 87h13M28 88h14M54 88h87M155 88h42M204 88h65M411 88h115M543 88h12M611 88h13M635 88h13M716 88h14M794 88h115M923 88h12M949 88h12M976 88h12M1063 88h13M1086 88h79M1177 88h43M1254 88h13M28 89h14M54 89h14M127 89h14M155 89h42M204 89h65M313 89h85M411 89h115M543 89h12M577 89h12M611 89h13M635 89h13M716 89h14M794 89h115M1063 89h13M1086 89h79M1177 89h43M1254 89h13M28 90h14M54 90h14M127 90h14M155 90h42M204 90h65M313 90h85M411 90h115M543 90h12M577 90h12M611 90h13M635 90h13M716 90h14M794 90h115M1063 90h13M1086 90h79M1177 90h43M1254 90h13M28 91h14M54 91h14M127 91h14M155 91h42M204 91h65M313 91h85M411 91h12M513 91h13M543 91h12M577 91h12M611 91h13M635 91h13M716 91h14M794 91h115M1063 91h13M1086 91h79M1177 91h43M1254 91h13M28 92h14M54 92h14M127 92h14M155 92h42M204 92h65M313 92h85M411 92h12M513 92h13M543 92h12M577 92h12M611 92h13M635 92h13M716 92h14M794 92h115M1063 92h13M1086 92h79M1177 92h43M1254 92h13M28 93h14M54 93h14M127 93h14M155 93h42M204 93h65M313 93h85M411 93h12M513 93h13M543 93h12M577 93h12M611 93h13M635 93h13M716 93h14M794 93h115M1063 93h13M1086 93h79M1191 93h13M1254 93h13M28 94h14M54 94h14M127 94h14M155 94h42M204 94h65M294 94h12M313 94h85M411 94h12M513 94h13M543 94h12M577 94h12M611 94h13M635 94h13M716 94h14M794 94h115M1063 94h13M1086 94h12M1153 94h12M1191 94h13M1254 94h13M28 95h14M54 95h14M127 95h14M155 95h42M204 95h65M294 95h12M313 95h85M411 95h12M513 95h13M543 95h12M577 95h12M611 95h13M635 95h13M716 95h14M845 95h12M922 95h115M1063 95h13M1086 95h12M1153 95h12M1191 95h13M1254 95h13M28 96h14M54 96h14M127 96h14M155 96h42M204 96h65M294 96h12M313 96h85M411 96h12M513 96h13M543 96h12M577 96h12M611 96h13M635 96h13M716 96h14M845 96h12M922 96h115M1063 96h13M1086 96h12M1153 96h12M1191 96h13M1254 96h13M28 97h14M54 97h14M127 97h14M155 97h42M204 97h65M294 97h12M313 97h85M411 97h12M513 97h13M543 97h12M577 97h12M611 97h13M635 97h13M716 97h14M845 97h12M922 97h115M1063 97h13M1086 97h12M1153 97h12M1191 97h13M1254 97h13M28 98h14M54 98h14M127 98h14M294 98h12M313 98h85M411 98h12M513 98h13M543 98h12M577 98h12M611 98h13M635 98h13M716 98h14M845 98h12M922 98h115M1063 98h13M1086 98h12M1153 98h12M1191 98h13M1254 98h13M28 99h14M54 99h14M127 99h14M294 99h12M313 99h85M411 99h12M513 99h13M577 99h12M635 99h13M716 99h14M845 99h12M922 99h115M1063 99h13M1086 99h12M1153 99h12M1191 99h13M1254 99h13M28 100h14M54 100h14M127 100h14M294 100h12M386 100h12M411 100h12M513 100h13M577 100h12M635 100h13M716 100h14M845 100h12M922 100h115M1063 100h13M1086 100h12M1153 100h12M1191 100h13M1254 100h13M28 101h14M54 101h14M127 101h14M294 101h12M386 101h12M411 101h12M513 101h13M577 101h12M635 101h13M716 101h14M845 101h12M922 101h115M1063 101h13M1086 101h12M1153 101h12M1191 101h13M1254 101h13M28 102h14M54 102h14M127 102h14M294 102h12M386 102h12M411 102h12M513 102h13M577 102h12M635 102h13M716 102h14M845 102h12M922 102h115M1063 102h13M1086 102h12M1153 102h12M1191 102h13M1254 102h13M28 103h14M54 103h14M127 103h14M294 103h12M386 103h12M411 103h12M513 103h13M577 103h12M635 103h13M716 103h14M845 103h12M922 103h115M1063 103h13M1086 103h12M1153 103h12M1191 103h13M1254 103h13M28 104h14M54 104h14M127 104h14M294 104h12M386 104h12M411 104h12M513 104h13M577 104h12M635 104h13M716 104h14M794 104h115M922 104h115M1063 104h13M1086 104h12M1153 104h12M1191 104h13M1254 104h13M28 105h14M54 105h14M127 105h14M158 105h107M294 105h12M386 105h12M411 105h12M513 105h13M538 105h90M635 105h13M716 105h14M794 105h115M922 105h115M1063 105h13M1086 105h12M1153 105h12M1191 105h13M1254 105h13M28 106h14M54 106h14M127 106h14M158 106h107M294 106h12M386 106h12M411 106h12M513 106h13M538 106h90M635 106h13M716 106h14M794 106h115M922 106h115M1063 106h13M1086 106h12M1153 106h12M1191 106h13M1254 106h13M28 107h14M54 107h14M127 107h14M158 107h107M294 107h12M386 107h12M411 107h12M513 107h13M538 107h90M635 107h13M716 107h14M794 107h115M942 107h13M1063 107h13M1086 107h12M1153 107h12M1191 107h13M1254 107h13M28 108h14M54 108h14M127 108h14M158 108h107M294 108h12M386 108h12M411 108h12M513 108h13M538 108h90M635 108h13M716 108h14M794 108h115M942 108h13M1063 108h13M1086 108h12M1153 108h12M1191 108h13M1254 108h13M28 109h14M54 109h14M127 109h14M158 109h107M294 109h12M313 109h85M411 109h12M513 109h13M538 109h90M635 109h13M716 109h14M794 109h115M942 109h13M1063 109h13M1086 109h79M1191 109h13M1254 109h13M28 110h14M54 110h14M127 110h14M158 110h107M294 110h12M313 110h85M411 110h115M538 110h90M635 110h13M716 110h14M794 110h115M942 110h13M1063 110h13M1086 110h79M1191 110h13M1254 110h13M28 111h14M54 111h14M127 111h14M158 111h107M294 111h12M313 111h85M411 111h115M538 111h90M635 111h13M716 111h14M794 111h115M942 111h13M1063 111h13M1086 111h79M1191 111h13M1254 111h13M28 112h14M54 112h14M127 112h14M158 112h107M294 112h12M313 112h85M411 112h115M538 112h90M635 112h13M716 112h14M794 112h115M942 112h13M1063 112h13M1086 112h79M1191 112h13M1254 112h13M28 113h14M54 113h14M127 113h14M158 113h107M294 113h12M313 113h85M411 113h115M538 113h90M635 113h13M716 113h14M794 113h115M942 113h13M1063 113h13M1086 113h79M1191 113h13M1254 113h13M28 114h14M54 114h14M127 114h14M158 114h107M294 114h12M313 114h85M411 114h115M538 114h90M635 114h13M716 114h14M794 114h115M942 114h13M989 114h13M1063 114h13M1086 114h79M1191 114h13M1254 114h13M28 115h14M54 115h14M127 115h14M158 115h107M294 115h12M313 115h85M411 115h115M538 115h90M635 115h13M716 115h14M835 115h33M942 115h13M989 115h13M1063 115h13M1086 115h79M1191 115h13M1254 115h13M28 116h14M54 116h14M127 116h14M158 116h107M294 116h12M313 116h85M411 116h115M568 116h29M635 116h13M716 116h14M835 116h34M922 116h33M989 116h13M1063 116h13M1086 116h79M1191 116h13M1254 116h13M28 117h14M54 117h14M127 117h14M158 117h13M252 117h13M294 117h12M313 117h85M411 117h115M567 117h32M635 117h13M716 117h14M833 117h37M922 117h33M989 117h13M1063 117h13M1086 117h79M1191 117h13M1254 117h13M28 118h14M54 118h14M127 118h14M158 118h13M252 118h13M294 118h12M313 118h85M411 118h115M565 118h35M635 118h13M716 118h14M831 118h41M922 118h33M989 118h13M1063 118h13M1086 118h79M1191 118h13M1254 118h13M28 119h14M54 119h14M127 119h14M158 119h13M252 119h13M294 119h12M313 119h85M411 119h115M564 119h38M635 119h13M716 119h14M829 119h45M922 119h33M989 119h13M1063 119h13M1086 119h79M1191 119h13M1254 119h13M28 120h14M54 120h14M127 120h14M158 120h13M252 120h13M294 120h12M313 120h12M411 120h115M562 120h13M577 120h11M590 120h13M635 120h13M716 120h14M827 120h17M845 120h12M859 120h17M922 120h33M989 120h13M1063 120h13M1086 120h79M1191 120h13M1254 120h13M28 121h14M54 121h14M127 121h14M158 121h13M252 121h13M294 121h12M313 121h12M411 121h115M560 121h14M577 121h11M591 121h14M635 121h13M716 121h14M825 121h18M845 121h12M860 121h19M922 121h33M989 121h13M1063 121h13M1191 121h13M1254 121h13M28 122h14M54 122h14M127 122h14M158 122h13M252 122h13M294 122h12M313 122h12M461 122h13M558 122h15M577 122h11M592 122h15M635 122h13M716 122h14M822 122h20M845 122h12M862 122h19M922 122h33M989 122h13M1063 122h13M1191 122h13M1254 122h13M28 123h14M54 123h14M127 123h14M158 123h13M252 123h13M294 123h12M313 123h12M461 123h13M556 123h16M577 123h11M593 123h17M635 123h13M716 123h14M820 123h20M845 123h12M863 123h21M922 123h33M989 123h13M1063 123h13M1191 123h13M1254 123h13M28 124h14M54 124h14M127 124h14M158 124h13M252 124h13M294 124h12M313 124h12M461 124h13M554 124h17M577 124h11M594 124h18M635 124h13M716 124h14M817 124h22M845 124h12M865 124h22M922 124h33M989 124h13M1063 124h13M1191 124h13M1254 124h13M28 125h14M54 125h14M127 125h14M158 125h13M252 125h13M294 125h12M313 125h12M461 125h13M551 125h19M577 125h11M595 125h20M635 125h13M716 125h14M813 125h24M845 125h12M867 125h24M922 125h33M989 125h13M1063 125h13M1191 125h13M1254 125h13M28 126h14M54 126h14M127 126h14M158 126h13M252 126h13M294 126h12M313 126h12M461 126h13M548 126h21M577 126h11M597 126h22M635 126h13M716 126h14M809 126h27M845 126h12M868 126h27M922 126h33M989 126h13M1063 126h13M1191 126h13M1254 126h13M28 127h14M54 127h14M127 127h14M158 127h13M252 127h13M294 127h12M313 127h12M461 127h13M544 127h23M577 127h11M598 127h24M635 127h13M666 127h115M803 127h31M845 127h12M870 127h31M922 127h33M989 127h13M1063 127h13M1191 127h13M1254 127h13M28 128h14M54 128h87M158 128h13M252 128h13M294 128h12M313 128h12M461 128h13M539 128h27M577 128h11M600 128h27M635 128h13M666 128h115M794 128h38M845 128h12M872 128h37M942 128h13M989 128h13M1063 128h13M1191 128h13M1254 128h13M28 129h14M54 129h87M158 129h13M252 129h13M294 129h12M313 129h12M461 129h13M538 129h26M577 129h11M601 129h27M635 129h13M666 129h115M794 129h36M845 129h12M874 129h35M942 129h13M989 129h13M1063 129h13M1191 129h13M1254 129h13M28 130h14M54 130h87M151 130h122M282 130h24M313 130h85M461 130h65M538 130h25M577 130h11M603 130h25M635 130h22M666 130h115M794 130h34M845 130h12M876 130h33M942 130h37M989 130h48M1049 130h117M1191 130h13M1226 130h69M28 131h14M54 131h87M151 131h122M282 131h24M313 131h85M461 131h65M538 131h23M577 131h11M605 131h23M635 131h22M666 131h115M794 131h32M845 131h12M878 131h31M942 131h37M989 131h48M1049 131h117M1191 131h13M1226 131h69M28 132h14M54 132h87M151 132h122M282 132h24M313 132h85M461 132h65M538 132h21M577 132h11M607 132h21M635 132h22M666 132h115M794 132h29M845 132h12M881 132h28M942 132h37M989 132h48M1049 132h117M1191 132h13M1226 132h69M28 133h14M54 133h87M151 133h122M282 133h24M313 133h85M461 133h65M538 133h19M577 133h11M609 133h19M635 133h22M666 133h115M794 133h27M845 133h12M883 133h26M942 133h37M989 133h48M1049 133h117M1191 133h13M1226 133h69M28 134h14M54 134h87M151 134h122M282 134h24M313 134h85M461 134h65M538 134h17M577 134h11M611 134h17M635 134h22M666 134h115M794 134h24M845 134h12M886 134h23M942 134h37M989 134h48M1049 134h117M1191 134h13M1226 134h69M28 135h14M54 135h87M151 135h122M282 135h24M313 135h85M461 135h65M538 135h15M577 135h11M613 135h15M635 135h22M666 135h115M794 135h21M845 135h12M889 135h20M942 135h37M989 135h48M1049 135h117M1191 135h13M1226 135h69M28 136h14M54 136h87M151 136h122M282 136h24M313 136h85M461 136h65M538 136h13M577 136h11M615 136h13M635 136h22M666 136h115M794 136h17M845 136h12M892 136h17M942 136h37M989 136h48M1049 136h117M1191 136h13M1226 136h69M28 137h14M54 137h87M151 137h122M282 137h24M313 137h85M461 137h65M538 137h11M577 137h11M618 137h10M635 137h22M666 137h115M794 137h13M845 137h12M896 137h13M942 137h37M989 137h48M1049 137h117M1191 137h13M1226 137h69M28 138h14M54 138h87M151 138h122M282 138h24M313 138h85M461 138h65M538 138h8M577 138h11M620 138h8M635 138h22M666 138h115M794 138h9M845 138h12M901 138h8M942 138h37M989 138h48M1049 138h117M1191 138h13M1226 138h69M28 139h14M54 139h87M151 139h122M282 139h24M313 139h85M461 139h65M538 139h5M577 139h11M624 139h4M635 139h22M666 139h115M794 139h2M845 139h12M907 139h2M942 139h37M989 139h48M1049 139h117M1191 139h13M1226 139h69M28 140h14M54 140h87M151 140h122M282 140h24M313 140h85M461 140h65M538 140h1M577 140h11M635 140h22M845 140h12M942 140h37M989 140h48M1049 140h117M1191 140h13M1226 140h69M151 141h122M282 141h24M313 141h85M461 141h65M577 141h11M635 141h22M845 141h12M942 141h37M989 141h48M1049 141h117M1191 141h13M1226 141h69" />
<path stroke="#cbcbcb" d="M551 24h1M551 25h1M343 26h1M551 26h1M343 27h1M551 27h1M343 28h1M551 28h1M343 29h1M551 29h1M343 30h1M551 30h1M343 31h1M551 31h1M343 32h1M343 45h1M343 46h1M343 47h1M343 48h1M343 49h1M343 50h1M343 51h1M343 64h1M343 65h1M343 66h1M343 67h1M343 68h1M343 69h1M343 70h1M343 71h1M343 72h1M343 73h1M343 74h1M343 75h1M343 76h1M343 77h1M343 78h1M343 79h1M343 80h1M343 81h1M870 116h1M603 119h1M844 122h1M844 123h1M844 124h1M844 125h1M844 126h1M844 127h1M844 128h1M844 129h1M844 130h1M844 131h1M844 132h1M844 133h1M844 134h1M844 135h1M844 136h1M844 137h1M844 138h1M844 139h1M844 140h1M844 141h1" />
<path stroke="#9f9f9f" d="M203 25h1M203 26h1M203 27h1M804 27h1M203 28h1M804 28h1M203 29h1M804 29h1M203 30h1M804 30h1M203 31h1M804 31h1M203 32h1M804 32h1M203 33h1M804 33h1M203 34h1M804 34h1M203 35h1M804 35h1M203 36h1M804 36h1M203 37h1M804 37h1M203 38h1M203 39h1M203 40h1M203 41h1M203 48h1M203 49h1M203 50h1M203 51h1M203 52h1M203 53h1M203 54h1M203 55h1M203 56h1M203 57h1M203 58h1M203 59h1M203 60h1M203 61h1M203 62h1M203 63h1M203 64h1M203 65h1M203 66h1M203 67h1M203 68h1M203 69h1M203 70h1M203 71h1M203 72h1M203 73h1M203 74h1M203 75h1M203 76h1M203 77h1M203 78h1M203 79h1M203 80h1M203 81h1M203 82h1M203 83h1M203 84h1M203 85h1M203 86h1M203 87h1M203 88h1M203 89h1M203 90h1M203 91h1M203 92h1M203 93h1M203 94h1M203 95h1M203 96h1M203 97h1" />
<path stroke="#a3a3a3" d="M216 25h1M216 26h1M216 27h1M922 27h1M1049 27h1M216 28h1M922 28h1M1049 28h1M216 29h1M922 29h1M1049 29h1M922 30h1M1049 30h1M922 31h1M1049 31h1M922 32h1M1049 32h1M922 33h1M1049 33h1M922 34h1M1049 34h1M922 35h1M1049 35h1M922 36h1M1049 36h1M922 37h1M1049 37h1M922 38h1M1049 38h1M922 39h1M922 40h1M922 41h1M922 42h1M922 43h1M922 44h1M922 45h1M922 46h1M922 47h1M1049 55h1M1049 56h1M922 57h1M1049 57h1M922 58h1M1049 58h1M1294 58h1M922 59h1M1049 59h1M922 60h1M1049 60h1M216 61h1M922 61h1M1049 61h1M216 62h1M922 62h1M1049 62h1M216 63h1M922 63h1M1049 63h1M216 64h1M922 64h1M1049 64h1M216 65h1M922 65h1M1049 65h1M216 66h1M922 66h1M216 67h1M922 67h1M216 68h1M922 68h1M216 69h1M922 69h1M216 70h1M922 70h1M216 71h1M922 71h1M216 72h1M922 72h1M216 73h1M922 73h1M216 74h1M922 74h1M216 75h1M922 75h1M216 76h1M922 76h1M216 77h1M922 77h1M216 78h1M922 78h1M216 79h1M922 79h1M216 80h1M922 80h1M216 81h1M922 81h1M216 82h1M922 82h1M216 83h1M922 83h1M216 84h1M922 84h1M922 85h1M922 86h1M922 87h1M922 88h1M306 94h1M306 95h1M306 96h1M306 97h1M306 98h1M306 99h1M306 100h1M306 101h1M306 102h1M306 103h1M306 104h1M265 105h1M306 105h1M265 106h1M306 106h1M265 107h1M306 107h1M265 108h1M306 108h1M265 109h1M306 109h1M265 110h1M306 110h1M265 111h1M306 111h1M265 112h1M306 112h1M265 113h1M306 113h1M265 114h1M306 114h1M265 115h1M306 115h1M265 116h1M306 116h1M265 117h1M306 117h1M265 118h1M306 118h1M265 119h1M306 119h1M265 120h1M306 120h1M265 121h1M306 121h1M265 122h1M306 122h1M265 123h1M306 123h1M265 124h1M306 124h1M614 124h1M265 125h1M306 125h1M265 126h1M306 126h1M265 127h1M306 127h1M868 127h1M265 128h1M306 128h1M306 129h1M306 130h1M306 131h1M306 132h1M306 133h1M306 134h1M306 135h1M306 136h1M306 137h1M306 138h1M306 139h1M306 140h1M306 141h1" />
<path stroke="#d5d5d5" d="M330 25h1" />
<path stroke="#b7b7b7" d="M331 25h12M367 25h12M573 123h1M878 132h1" />
<path stroke="#f1f1f1" d="M343 25h1M1049 39h1M922 48h1M265 104h1M830 130h1M873 130h1M909 140h1M627 141h1" />
<path stroke="#e3e3e3" d="M366 25h1" />
<path stroke="#e2e2e2" d="M379 25h1M269 98h1M628 104h1M600 117h1" />
<path stroke="#969696" d="M1191 25h1M555 99h1" />
<path stroke="#7b7b7b" d="M1192 25h12M1254 25h13M1076 27h1M1076 28h1M1076 29h1M1076 30h1M1076 31h1M1076 32h1M1076 33h1M1076 34h1M1076 35h1M1076 36h1M1076 37h1M1076 38h1M313 44h17M344 44h22M380 44h18M1076 55h1M923 56h25M962 56h26M1076 56h1M1076 57h1M1076 58h1M1076 59h1M1076 60h1M1076 61h1M1076 62h1M313 63h17M344 63h22M380 63h18M1076 63h1M1076 64h1M1076 65h1M1076 66h1M1076 67h1M1076 68h1M1076 69h1M1076 70h1M1076 71h1M1076 72h1M1076 73h1M1076 74h1M1076 75h1M1076 76h1M1076 77h1M1076 78h1M1076 79h1M1076 80h1M1076 81h1M313 82h30M367 82h31M1076 82h1M1076 83h1M1076 84h1M1076 85h1M1076 86h1M1076 87h1M1076 88h1M1076 89h1M1076 90h1M1076 91h1M1076 92h1M1076 93h1M1076 94h1M1076 95h1M1098 95h1M1076 96h1M1098 96h1M1076 97h1M1098 97h1M1076 98h1M1098 98h1M1076 99h1M1098 99h1M1076 100h1M1098 100h1M1076 101h1M1098 101h1M1076 102h1M1098 102h1M1076 103h1M1098 103h1M1076 104h1M1098 104h1M1076 105h1M1098 105h1M1076 106h1M1098 106h1M1076 107h1M1098 107h1M1076 108h1M1098 108h1M1076 109h1M1076 110h1M1076 111h1M1076 112h1M1076 113h1M1076 114h1M1076 115h1M1076 116h1M1076 117h1M1076 118h1M1076 119h1M1076 120h1M1076 121h1M1076 122h1M1076 123h1M1076 124h1M1076 125h1M1076 126h1M1076 127h1M1076 128h1M1062 129h1" />
<path stroke="#ababab" d="M1204 25h1M154 27h1M154 28h1M154 29h1M154 30h1M154 31h1M154 32h1M154 33h1M154 34h1M154 35h1M154 36h1M154 37h1M154 38h1M154 39h1M154 40h1M154 41h1M154 42h1M154 43h1M154 44h1M154 45h1M154 46h1M154 47h1M154 48h1M154 49h1M154 50h1M154 51h1M154 52h1M154 53h1M154 54h1M1050 54h26M154 55h1M154 56h1M154 57h1M154 58h1M154 59h1M154 60h1M154 61h1M154 62h1M154 63h1M154 64h1M154 65h1M154 66h1M154 67h1M154 68h1M154 69h1M154 70h1M154 71h1M154 72h1M154 73h1M154 74h1M154 75h1M154 76h1M154 77h1M154 78h1M154 79h1M154 80h1M154 81h1M154 82h1M154 83h1M154 84h1M154 85h1M154 86h1M154 87h1M154 88h1M154 89h1M154 90h1M154 91h1M154 92h1M154 93h1M154 94h1M154 95h1M154 96h1M154 97h1" />
<path stroke="#c0c0c0" d="M1253 25h1M282 39h1M806 138h1M908 140h1" />
<path stroke="#b3b3b3" d="M1267 25h1M844 27h1M844 28h1M844 29h1M844 30h1M844 31h1M844 32h1M844 33h1M844 34h1M844 35h1M844 36h1M844 37h1M860 122h1M562 131h1M810 137h1" />
<path stroke="#676767" d="M330 26h1M330 27h1M330 28h1M330 29h1M330 30h1M330 31h1M330 32h1M330 45h1M330 46h1M330 47h1M330 48h1M330 49h1M330 50h1M330 51h1M330 64h1M330 65h1M330 66h1M330 67h1M330 68h1M330 69h1M330 70h1M411 71h13M460 71h14M513 71h13M126 89h1M857 121h1M857 122h1M857 123h1M857 124h1M857 125h1M857 126h1M624 127h1M857 127h1M857 128h1M857 129h1M657 130h1M857 130h1M657 131h1M857 131h1M657 132h1M857 132h1M657 133h1M857 133h1M657 134h1M857 134h1M657 135h1M857 135h1M657 136h1M857 136h1M657 137h1M857 137h1M657 138h1M857 138h1M657 139h1M857 139h1M657 140h1M857 140h1M657 141h1M857 141h1" />
<path stroke="#9b9b9b" d="M366 26h1M366 27h1M366 28h1M366 29h1M366 30h1M366 31h1M366 32h1M366 45h1M366 46h1M366 47h1M366 48h1M366 49h1M366 50h1M366 51h1M366 64h1M366 65h1M366 66h1M366 67h1M366 68h1M366 69h1M366 70h1M366 71h1M366 72h1M366 73h1M366 74h1M366 75h1M366 76h1M366 77h1M366 78h1M366 79h1M366 80h1M366 81h1M817 123h1M550 137h1" />
<path stroke="#979797" d="M379 26h1M379 27h1M379 28h1M379 29h1M379 30h1M379 31h1M379 32h1M379 45h1M379 46h1M379 47h1M379 48h1M379 49h1M379 50h1M379 51h1M379 64h1M379 65h1M379 66h1M379 67h1M379 68h1M379 69h1M379 70h1M1049 129h13M1077 129h89" />
<path stroke="#333333" d="M1191 26h1M1191 27h1M1191 28h1M1191 29h1M1191 30h1M1191 31h1M1191 32h1M1191 33h1M1191 34h1M1191 35h1M1191 36h1M283 39h24M1177 49h30M1207 50h1M1207 51h1M1207 52h1M1207 53h1M1207 54h1M1207 55h1M1207 56h1M1207 57h1M1207 58h1M1229 58h24M1268 58h26M1207 59h1M1207 60h1M1207 61h1M1207 62h1M1207 63h1M1207 64h1M1207 65h1M1207 66h1M1207 67h1M1207 68h1M1207 69h1M1207 70h1M1207 71h1M1207 72h1M1207 73h1M1207 74h1M1207 75h1M1207 76h1M1207 77h1M1207 78h1M1207 79h1M1207 80h1M1177 93h13M1204 93h16M325 121h1M325 122h1M325 123h1M325 124h1M325 125h1M325 126h1M325 127h1M325 128h1M282 129h11M1226 129h27M1268 129h27M619 138h1" />
<path stroke="#5b5b5b" d="M1204 26h1M1204 27h1M1204 28h1M1204 29h1M1204 30h1M1204 31h1M1204 32h1M1204 33h1M1204 34h1M1204 35h1M1204 36h1M167 39h1M554 135h1" />
<path stroke="#838383" d="M1253 26h1M1253 27h1M1253 28h1M1253 29h1M1253 30h1M1253 31h1M1253 32h1M1253 33h1M1253 34h1M1253 35h1M1253 36h1M1253 37h1M1253 38h1M1253 39h1M1253 40h1M1253 41h1M1253 42h1M1253 43h1M1253 44h1M1253 45h1M1253 46h1M1253 47h1M1253 48h1M1253 49h1M1253 50h1M1253 51h1M1253 52h1M1253 53h1M1253 54h1M1253 55h1M1253 56h1M1253 57h1M1050 66h12M1253 71h1M1253 72h1M1253 73h1M1253 74h1M1253 75h1M1253 76h1M1253 77h1M1253 78h1M1253 79h1M1253 80h1M1253 81h1M1253 82h1M1253 83h1M1253 84h1M1253 85h1M1253 86h1M1253 87h1M1253 88h1M1253 89h1M1253 90h1M1253 91h1M1253 92h1M1253 93h1M1253 94h1M1253 95h1M1253 96h1M1253 97h1M1253 98h1M1253 99h1M1253 100h1M1253 101h1M1253 102h1M1253 103h1M1253 104h1M1253 105h1M1253 106h1M1253 107h1M1253 108h1M1253 109h1M1253 110h1M1253 111h1M1253 112h1M1253 113h1M1253 114h1M1253 115h1M1253 116h1M1253 117h1M1253 118h1M1253 119h1M1253 120h1M1253 121h1M1253 122h1M1253 123h1M1253 124h1M1253 125h1M1253 126h1M1253 127h1M1253 128h1" />
<path stroke="#6b6b6b" d="M1267 26h1M1267 27h1M1267 28h1M1267 29h1M1267 30h1M1267 31h1M1267 32h1M1267 33h1M1267 34h1M1267 35h1M1267 36h1M1267 37h1M1267 38h1M1267 39h1M167 40h1M1267 40h1M167 41h1M1267 41h1M167 42h1M1267 42h1M167 43h1M1267 43h1M167 44h1M1267 44h1M167 45h1M1267 45h1M167 46h1M1267 46h1M167 47h1M1267 47h1M167 48h1M1267 48h1M167 49h1M1267 49h1M167 50h1M1267 50h1M167 51h1M1267 51h1M167 52h1M1267 52h1M167 53h1M1267 53h1M167 54h1M1267 54h1M167 55h1M1267 55h1M167 56h1M1267 56h1M167 57h1M1267 57h1M167 58h1M167 59h1M167 60h1M167 61h1M167 62h1M167 63h1M167 64h1M167 65h1M167 66h1M1062 66h1M167 67h1M167 68h1M167 69h1M167 70h1M167 71h1M1267 71h1M167 72h1M1267 72h1M167 73h1M1267 73h1M167 74h1M1267 74h1M167 75h1M1267 75h1M167 76h1M1267 76h1M167 77h1M1267 77h1M167 78h1M1267 78h1M167 79h1M1267 79h1M167 80h1M1267 80h1M167 81h1M1267 81h1M167 82h1M1267 82h1M167 83h1M1267 83h1M167 84h1M1267 84h1M1267 85h1M1267 86h1M1267 87h1M1267 88h1M1267 89h1M1267 90h1M1267 91h1M1267 92h1M1267 93h1M1267 94h1M1267 95h1M1267 96h1M1267 97h1M1267 98h1M1267 99h1M1267 100h1M1267 101h1M1267 102h1M1267 103h1M1267 104h1M1267 105h1M1267 106h1M1267 107h1M1267 108h1M1267 109h1M1267 110h1M1267 111h1M1267 112h1M1267 113h1M1267 114h1M1267 115h1M1267 116h1M1267 117h1M1267 118h1M1267 119h1M1267 120h1M1267 121h1M1267 122h1M1267 123h1M1267 124h1M892 125h1M1267 125h1M1267 126h1M1267 127h1M1267 128h1M955 129h1M890 136h1M544 139h1" />
<path stroke="#eeeeee" d="M27 27h1M53 27h1M1165 38h1M1009 67h1M1165 121h1M843 122h1" />
<path stroke="#1b1b1b" d="M28 27h14M54 27h87M794 38h10M819 38h11M845 38h12M872 38h10M897 38h12M592 123h1M614 136h1" />
<path stroke="#bbbbbb" d="M197 27h1M1118 27h1M197 28h1M1118 28h1M197 29h1M1118 29h1M197 30h1M1118 30h1M197 31h1M1118 31h1M197 32h1M1118 32h1M197 33h1M1118 33h1M197 34h1M1118 34h1M197 35h1M1118 35h1M197 36h1M1118 36h1M197 37h1M1118 37h1M197 38h1M1118 51h1M1118 52h1M1118 53h1M1118 54h1M1118 55h1M1118 56h1M1118 57h1M1118 58h1M1118 59h1M1118 60h1M1118 61h1M197 86h1M197 87h1M197 88h1M197 89h1M197 90h1M197 91h1M197 92h1M197 93h1M197 94h1M197 95h1M197 96h1M197 97h1" />
<path stroke="#afafaf" d="M282 27h1M882 27h1M282 28h1M882 28h1M282 29h1M882 29h1M282 30h1M882 30h1M282 31h1M882 31h1M282 32h1M882 32h1M282 33h1M882 33h1M282 34h1M882 34h1M282 35h1M882 35h1M282 36h1M882 36h1M282 37h1M882 37h1M282 38h1M282 59h1M282 60h1M282 61h1M282 62h1M282 63h1M282 64h1M282 65h1M282 66h1M282 67h1M996 67h13M282 68h1M282 69h1M282 70h1M634 83h1" />
<path stroke="#939393" d="M410 27h1M410 28h1M410 29h1M410 30h1M410 31h1M410 32h1M410 33h1M410 34h1M410 35h1M410 36h1M410 37h1M410 38h1M410 46h1M410 47h1M410 48h1M410 49h1M410 50h1M410 51h1M410 52h1M410 53h1M410 54h1M410 55h1M410 56h1M410 57h1M410 58h1M410 59h1M410 60h1M410 61h1M410 62h1M410 63h1M410 64h1M410 65h1M410 66h1M410 67h1M410 68h1M410 69h1M410 70h1M411 78h115M410 79h1M410 80h1M410 81h1M410 82h1M410 83h1M410 84h1M410 85h1M410 86h1M410 87h1M410 88h1M410 89h1M410 90h1M410 91h1M410 92h1M410 93h1M410 94h1M410 95h1M410 96h1M410 97h1M410 98h1M410 99h1M410 100h1M410 101h1M410 102h1M410 103h1M410 104h1M410 105h1M410 106h1M410 107h1M410 108h1M410 109h1M424 109h88M410 110h1M410 111h1M410 112h1M410 113h1M410 114h1M410 115h1M410 116h1M410 117h1M410 118h1M410 119h1M410 120h1M410 121h1M617 125h1" />
<path stroke="#efefef" d="M666 27h115M948 27h1M948 28h1M948 29h1M948 30h1M948 31h1M948 32h1M948 33h1M948 34h1M948 35h1M410 39h1M948 49h1M948 50h1M538 51h110M948 51h1M948 52h1M948 53h1M948 54h1M948 55h1M948 68h1M948 69h1M948 70h1M948 71h1M948 72h1M948 73h1M948 74h1M948 75h1M948 76h1M948 77h1M948 78h1M948 79h1M948 80h1M948 81h1M948 82h1M948 83h1M948 84h1M948 85h1M948 86h1M948 87h1M948 88h1M923 89h12M949 89h12M976 89h12M922 94h115M808 125h1" />
<path stroke="#fdfdfd" d="M781 27h1M1037 94h1M602 118h1M828 118h1M597 128h1M546 139h1M543 140h1M781 140h1" />
<path stroke="#4b4b4b" d="M818 27h1M818 28h1M818 29h1M818 30h1M818 31h1M818 32h1M818 33h1M818 34h1M818 35h1M818 36h1M818 37h1M366 44h1M366 63h1M385 100h1M385 101h1M385 102h1M385 103h1M385 104h1M385 105h1M385 106h1M385 107h1M385 108h1M887 135h1" />
<path stroke="#373737" d="M830 27h1M830 28h1M830 29h1M830 30h1M830 31h1M830 32h1M830 33h1M830 34h1M830 35h1M830 36h1M830 37h1M989 113h13M867 126h1" />
<path stroke="#171717" d="M857 27h1M1098 27h1M857 28h1M1098 28h1M857 29h1M1098 29h1M857 30h1M1098 30h1M857 31h1M1098 31h1M857 32h1M1098 32h1M857 33h1M1098 33h1M857 34h1M1098 34h1M857 35h1M1098 35h1M857 36h1M1098 36h1M857 37h1M1098 37h1M871 38h1M961 56h1M257 61h1M257 62h1M257 63h1M257 64h1M257 65h1M257 66h1M257 67h1M257 68h1M257 69h1M257 70h1M257 71h1M257 72h1M257 73h1M257 74h1M257 75h1M257 76h1M257 77h1M257 78h1M257 79h1M257 80h1M257 81h1M257 82h1M257 83h1M257 84h1M257 85h1M313 88h85M326 120h72M861 122h1M864 124h1M828 130h1" />
<path stroke="#d3d3d3" d="M871 27h1M1132 27h1M781 28h1M871 28h1M1132 28h1M781 29h1M871 29h1M1132 29h1M781 30h1M871 30h1M1132 30h1M781 31h1M871 31h1M1132 31h1M781 32h1M871 32h1M1132 32h1M781 33h1M871 33h1M1132 33h1M781 34h1M871 34h1M1132 34h1M781 35h1M871 35h1M1132 35h1M781 36h1M871 36h1M1132 36h1M781 37h1M871 37h1M1132 37h1M781 38h1M781 39h1M909 39h1M781 40h1M909 40h1M909 41h1M909 42h1M909 43h1M909 44h1M909 45h1M909 46h1M909 47h1M909 48h1M909 49h1M1132 51h1M1132 52h1M1132 53h1M1132 54h1M1132 55h1M1132 56h1M1132 57h1M1132 58h1M1132 59h1M1132 60h1M1132 61h1M909 63h1M909 64h1M909 65h1M909 66h1M1049 66h1M909 67h1M909 68h1M909 69h1M909 70h1M909 71h1M909 72h1M909 73h1M909 74h1M1086 74h79M909 83h1M909 84h1M909 85h1M909 86h1M909 87h1M909 88h1M909 89h1M909 90h1M909 91h1M909 92h1M909 93h1M909 94h1M794 95h50M858 95h51M1037 95h1M1037 96h1M1037 97h1M1037 98h1M1037 99h1M1037 100h1M1037 101h1M1037 102h1M1037 103h1M909 104h1M1037 104h1M909 105h1M1037 105h1M909 106h1M1037 106h1M909 107h1M909 108h1M909 109h1M909 110h1M909 111h1M909 112h1M909 113h1M909 114h1M781 127h1M781 128h1M909 128h1M781 129h1M909 129h1M781 130h1M909 130h1M1037 130h1M781 131h1M909 131h1M1037 131h1M781 132h1M909 132h1M1037 132h1M781 133h1M909 133h1M1037 133h1M781 134h1M909 134h1M1037 134h1M781 135h1M909 135h1M1037 135h1M781 136h1M909 136h1M1037 136h1M781 137h1M909 137h1M1037 137h1M781 138h1M909 138h1M1037 138h1M781 139h1M909 139h1M1037 139h1M1037 140h1M1037 141h1" />
<path stroke="#777777" d="M935 27h1M1036 27h1M1085 27h1M935 28h1M1036 28h1M1085 28h1M935 29h1M1036 29h1M1085 29h1M935 30h1M1036 30h1M1085 30h1M935 31h1M1036 31h1M1085 31h1M935 32h1M1036 32h1M1085 32h1M935 33h1M1036 33h1M1085 33h1M935 34h1M1036 34h1M1085 34h1M935 35h1M1036 35h1M1085 35h1M1036 36h1M1085 36h1M1036 37h1M1085 37h1M1036 38h1M1085 38h1M1036 39h1M1085 39h1M1036 40h1M1085 40h1M1036 41h1M1085 41h1M1036 42h1M1085 42h1M1036 43h1M1085 43h1M1036 44h1M1085 44h1M1036 45h1M1085 45h1M1036 46h1M1085 46h1M1036 47h1M1085 47h1M1036 48h1M1085 48h1M1036 49h1M1085 49h1M1036 50h1M1085 50h1M1036 51h1M1036 52h1M1036 53h1M1036 54h1M1036 55h1M1036 56h1M1036 57h1M1036 58h1M1036 59h1M1036 60h1M1036 61h1M1036 62h1M1085 62h1M1036 63h1M1085 63h1M1036 64h1M1085 64h1M1036 65h1M1085 65h1M1036 66h1M1085 66h1M1036 67h1M1085 67h1M935 68h1M975 68h1M1036 68h1M1085 68h1M935 69h1M975 69h1M1036 69h1M1085 69h1M935 70h1M975 70h1M1036 70h1M1085 70h1M935 71h1M975 71h1M1036 71h1M1085 71h1M935 72h1M975 72h1M1036 72h1M1085 72h1M935 73h1M975 73h1M1036 73h1M1085 73h1M935 74h1M975 74h1M1036 74h1M935 75h1M975 75h1M1036 75h1M935 76h1M975 76h1M1036 76h1M935 77h1M975 77h1M1036 77h1M935 78h1M975 78h1M1036 78h1M935 79h1M975 79h1M1036 79h1M935 80h1M975 80h1M1036 80h1M935 81h1M975 81h1M1036 81h1M935 82h1M975 82h1M1036 82h1M1085 82h1M935 83h1M975 83h1M1036 83h1M1085 83h1M935 84h1M975 84h1M1036 84h1M1085 84h1M935 85h1M975 85h1M1036 85h1M1085 85h1M935 86h1M975 86h1M1036 86h1M1085 86h1M935 87h1M975 87h1M1036 87h1M1085 87h1M935 88h1M975 88h1M1085 88h1M1085 89h1M1085 90h1M1085 91h1M1085 92h1M1085 93h1M1085 94h1M1085 95h1M1085 96h1M1085 97h1M1085 98h1M1085 99h1M1085 100h1M1085 101h1M1085 102h1M1085 103h1M1085 104h1M1085 105h1M1085 106h1M1085 107h1M1085 108h1M1085 109h1M1085 110h1M1085 111h1M1085 112h1M1085 113h1M1085 114h1M1085 115h1M1085 116h1M1085 117h1M1085 118h1M1085 119h1M1085 120h1M819 134h1M903 139h1" />
<path stroke="#2f2f2f" d="M961 27h1M1023 27h1M961 28h1M1023 28h1M961 29h1M1023 29h1M269 30h1M961 30h1M1023 30h1M269 31h1M961 31h1M1023 31h1M269 32h1M961 32h1M1023 32h1M269 33h1M961 33h1M1023 33h1M269 34h1M961 34h1M1023 34h1M269 35h1M961 35h1M1023 35h1M269 36h1M1023 36h1M269 37h1M1023 37h1M269 38h1M1023 38h1M269 39h1M1023 39h1M269 40h1M1023 40h1M269 41h1M1023 41h1M1023 42h1M1023 43h1M1023 44h1M1023 45h1M1023 46h1M1023 47h1M269 48h1M1023 48h1M269 49h1M961 49h1M1023 49h1M269 50h1M961 50h1M1023 50h1M269 51h1M961 51h1M1023 51h1M269 52h1M961 52h1M1023 52h1M269 53h1M961 53h1M1023 53h1M269 54h1M961 54h1M1023 54h1M269 55h1M961 55h1M1023 55h1M269 56h1M1023 56h1M269 57h1M1023 57h1M269 58h1M1023 58h1M269 59h1M1023 59h1M269 60h1M1023 60h1M269 61h1M1023 61h1M269 62h1M1023 62h1M269 63h1M1023 63h1M269 64h1M1023 64h1M269 65h1M1023 65h1M269 66h1M1023 66h1M269 67h1M1023 67h1M269 68h1M961 68h1M1023 68h1M269 69h1M961 69h1M1023 69h1M269 70h1M961 70h1M1023 70h1M269 71h1M961 71h1M1023 71h1M269 72h1M961 72h1M1023 72h1M269 73h1M961 73h1M1023 73h1M269 74h1M961 74h1M1023 74h1M269 75h1M961 75h1M1023 75h1M269 76h1M961 76h1M269 77h1M961 77h1M269 78h1M961 78h1M269 79h1M961 79h1M269 80h1M961 80h1M269 81h1M961 81h1M269 82h1M961 82h1M269 83h1M961 83h1M269 84h1M961 84h1M269 85h1M961 85h1M269 86h1M961 86h1M269 87h1M961 87h1M269 88h1M961 88h1M269 89h1M269 90h1M269 91h1M269 92h1M269 93h1M269 94h1M269 95h1M269 96h1M269 97h1" />
<path stroke="#dfdfdf" d="M995 27h1M995 28h1M995 29h1M995 30h1M995 31h1M552 32h96M995 32h1M995 33h1M995 34h1M995 35h1M995 36h1M995 37h1M995 38h1M995 39h1M995 40h1M995 41h1M269 42h1M995 42h1M995 43h1M995 44h1M995 45h1M995 46h1M995 47h1M995 48h1M995 49h1M995 50h1M995 51h1M995 52h1M995 53h1M995 54h1M995 55h1M995 56h1M995 57h1M995 58h1M995 59h1M995 60h1M995 61h1M995 62h1M995 63h1M995 64h1M995 65h1M995 66h1M283 71h24M988 114h1M988 115h1M988 116h1M988 117h1M988 118h1M988 119h1M988 120h1M988 121h1M988 122h1M988 123h1M988 124h1M988 125h1M988 126h1M988 127h1M988 128h1M988 129h1M988 130h1M988 131h1M988 132h1M988 133h1M988 134h1M988 135h1M553 136h1M988 136h1M988 137h1M988 138h1M988 139h1M988 140h1M988 141h1" />
<path stroke="#c7c7c7" d="M1009 27h1M1009 28h1M1009 29h1M1009 30h1M1009 31h1M1009 32h1M1009 33h1M1009 34h1M1009 35h1M1009 36h1M1009 37h1M1009 38h1M474 39h1M1009 39h1M126 40h1M1009 40h1M1009 41h1M1009 42h1M1009 43h1M1009 44h1M1009 45h1M1009 46h1M1009 47h1M1009 48h1M1009 49h1M1009 50h1M1009 51h1M1009 52h1M1009 53h1M1009 54h1M1009 55h1M1009 56h1M1009 57h1M474 58h1M1009 58h1M1009 59h1M1009 60h1M1009 61h1M1009 62h1M1009 63h1M1009 64h1M1009 65h1M1009 66h1M1002 114h1M1002 115h1M1002 116h1M1002 117h1M1002 118h1M1002 119h1M1002 120h1M1002 121h1M1002 122h1M1002 123h1M1002 124h1M1002 125h1M1002 126h1M1002 127h1M1002 128h1" />
<path stroke="#ebebeb" d="M27 28h1M53 28h1M27 29h1M53 29h1M27 30h1M53 30h1M27 31h1M53 31h1M27 32h1M53 32h1M27 33h1M53 33h1M27 34h1M53 34h1M27 35h1M53 35h1M27 36h1M53 36h1M27 37h1M53 37h1M27 38h1M53 38h1M27 39h1M53 39h1M1076 39h1M27 40h1M53 40h1M474 40h1M27 41h1M53 41h1M126 41h1M474 41h1M27 42h1M53 42h1M126 42h1M474 42h1M27 43h1M53 43h1M126 43h1M474 43h1M27 44h1M53 44h1M126 44h1M474 44h1M27 45h1M53 45h1M126 45h1M474 45h1M27 46h1M53 46h1M126 46h1M27 47h1M53 47h1M126 47h1M27 48h1M53 48h1M126 48h1M27 49h1M53 49h1M126 49h1M27 50h1M53 50h1M126 50h1M27 51h1M53 51h1M126 51h1M27 52h1M53 52h1M126 52h1M27 53h1M53 53h1M126 53h1M27 54h1M53 54h1M126 54h1M27 55h1M53 55h1M126 55h1M27 56h1M53 56h1M126 56h1M27 57h1M53 57h1M126 57h1M27 58h1M53 58h1M126 58h1M27 59h1M53 59h1M126 59h1M474 59h1M27 60h1M53 60h1M126 60h1M474 60h1M27 61h1M53 61h1M126 61h1M474 61h1M27 62h1M53 62h1M126 62h1M474 62h1M27 63h1M53 63h1M126 63h1M474 63h1M27 64h1M53 64h1M126 64h1M474 64h1M27 65h1M53 65h1M126 65h1M474 65h1M27 66h1M53 66h1M126 66h1M474 66h1M27 67h1M53 67h1M126 67h1M474 67h1M27 68h1M53 68h1M126 68h1M474 68h1M27 69h1M53 69h1M126 69h1M474 69h1M27 70h1M53 70h1M126 70h1M474 70h1M27 71h1M53 71h1M126 71h1M27 72h1M53 72h1M126 72h1M27 73h1M53 73h1M126 73h1M27 74h1M53 74h1M126 74h1M27 75h1M53 75h1M126 75h1M27 76h1M53 76h1M27 77h1M53 77h1M27 78h1M53 78h1M27 79h1M53 79h1M27 80h1M53 80h1M27 81h1M53 81h1M27 82h1M53 82h1M27 83h1M53 83h1M27 84h1M53 84h1M27 85h1M53 85h1M27 86h1M53 86h1M27 87h1M53 87h1M27 88h1M53 88h1M27 89h1M53 89h1M27 90h1M53 90h1M126 90h1M27 91h1M53 91h1M126 91h1M27 92h1M53 92h1M126 92h1M27 93h1M53 93h1M126 93h1M27 94h1M53 94h1M126 94h1M27 95h1M53 95h1M126 95h1M27 96h1M53 96h1M126 96h1M27 97h1M53 97h1M126 97h1M27 98h1M53 98h1M126 98h1M27 99h1M53 99h1M126 99h1M27 100h1M53 100h1M126 100h1M27 101h1M53 101h1M126 101h1M27 102h1M53 102h1M126 102h1M27 103h1M53 103h1M126 103h1M27 104h1M53 104h1M126 104h1M27 105h1M53 105h1M126 105h1M27 106h1M53 106h1M126 106h1M27 107h1M53 107h1M126 107h1M27 108h1M53 108h1M126 108h1M27 109h1M53 109h1M126 109h1M27 110h1M53 110h1M126 110h1M27 111h1M53 111h1M126 111h1M27 112h1M53 112h1M126 112h1M27 113h1M53 113h1M126 113h1M27 114h1M53 114h1M126 114h1M27 115h1M53 115h1M126 115h1M27 116h1M53 116h1M126 116h1M27 117h1M53 117h1M126 117h1M27 118h1M53 118h1M126 118h1M27 119h1M53 119h1M126 119h1M27 120h1M53 120h1M126 120h1M27 121h1M53 121h1M126 121h1M27 122h1M53 122h1M126 122h1M27 123h1M53 123h1M126 123h1M27 124h1M53 124h1M126 124h1M27 125h1M53 125h1M126 125h1M27 126h1M53 126h1M126 126h1M27 127h1M53 127h1M27 128h1M53 128h1M27 129h1M53 129h1M27 130h1M53 130h1M1166 130h1M27 131h1M53 131h1M1166 131h1M27 132h1M53 132h1M1166 132h1M27 133h1M53 133h1M1166 133h1M27 134h1M53 134h1M1166 134h1M27 135h1M53 135h1M1166 135h1M27 136h1M53 136h1M1166 136h1M27 137h1M53 137h1M1166 137h1M27 138h1M53 138h1M1166 138h1M27 139h1M53 139h1M1166 139h1M27 140h1M53 140h1M1166 140h1M1166 141h1" />
<path stroke="#b2b2b2" d="M551 32h1M1132 38h1M804 126h1" />
<path stroke="#bfbfbf" d="M988 36h1M988 37h1M988 38h1M988 39h1M988 40h1M988 41h1M988 42h1M988 43h1M988 44h1M988 45h1M988 46h1M988 47h1M988 57h1M988 58h1M988 59h1M988 60h1M988 61h1M988 62h1M988 63h1M988 64h1M988 65h1M988 66h1M988 67h1M988 68h1M988 69h1M988 70h1M410 71h1M988 71h1M988 72h1M988 73h1M988 74h1M988 75h1M988 76h1M995 76h1M988 77h1M995 77h1M988 78h1M995 78h1M988 79h1M995 79h1M988 80h1M995 80h1M988 81h1M995 81h1M988 82h1M995 82h1M988 83h1M995 83h1M988 84h1M995 84h1M988 85h1M995 85h1M988 86h1M995 86h1M988 87h1M995 87h1M988 88h1M878 120h1M558 121h1" />
<path stroke="#7f7f7f" d="M1176 37h1M1176 38h1M1176 39h1M1176 40h1M1176 41h1M1176 42h1M1176 43h1M1176 44h1M1176 45h1M1176 46h1M1176 47h1M1176 48h1M68 76h58M1176 81h1M1176 82h1M1176 83h1M1176 84h1M1176 85h1M1176 86h1M1176 87h1M1176 88h1M1176 89h1M1176 90h1M1176 91h1M1176 92h1M955 108h1M955 109h1M955 110h1M955 111h1M955 112h1M955 113h1M955 114h1M955 115h1M598 116h1M955 116h1M955 117h1M955 118h1M955 119h1M955 120h1M955 121h1M955 122h1M955 123h1M814 124h1M955 124h1M955 125h1M955 126h1M955 127h1M955 128h1M613 136h1" />
<path stroke="#111111" d="M804 38h1M576 104h1M830 129h1" />
<path stroke="#080808" d="M818 38h1M881 122h1M604 131h1" />
<path stroke="#060606" d="M830 38h1M896 38h1M872 118h1M589 120h1M615 125h1M557 133h1M811 136h1" />
<path stroke="#131313" d="M844 38h1M882 38h1M576 89h1M576 90h1M576 91h1M576 92h1M576 93h1M576 94h1M576 95h1M576 96h1M576 97h1M576 98h1M576 99h1M576 100h1M576 101h1M576 102h1M576 103h1M567 127h1M871 128h1M539 140h1" />
<path stroke="#020202" d="M857 38h1M834 116h1M575 120h1M574 121h1M866 125h1M606 132h1M610 134h1M553 135h1M807 137h1" />
<path stroke="#d8d8d8" d="M909 38h1M605 120h1M803 126h1M979 129h1M610 135h1" />
<path stroke="#141414" d="M1098 38h1M257 60h1" />
<path stroke="#d7d7d7" d="M1099 38h19M1133 38h32M168 39h29M411 39h49M475 39h51M1050 39h26M68 40h58M204 42h65M923 48h25M962 48h26M424 58h36M475 58h37M217 60h40M794 62h115M538 83h96M996 88h40M1099 94h53M158 104h107M1086 121h79M922 128h19M151 129h6M172 129h80M266 129h7M326 129h72M475 129h51M648 129h9M956 129h23M1003 129h34M896 138h1" />
<path stroke="#9e9e9e" d="M1118 38h1M844 121h1" />
<path stroke="#f5f5f5" d="M197 39h1M988 48h1M995 67h1M282 71h1M995 88h1M885 135h1" />
<path stroke="#8f8f8f" d="M1165 39h1M1165 40h1M1165 41h1M1165 42h1M1165 43h1M1165 44h1M1165 45h1M1165 46h1M1165 47h1M1165 48h1M1165 49h1M1165 50h1M512 59h1M1228 59h1M512 60h1M1228 60h1M512 61h1M1228 61h1M512 62h1M1165 62h1M1228 62h1M512 63h1M1165 63h1M1228 63h1M512 64h1M1165 64h1M1228 64h1M512 65h1M1165 65h1M1228 65h1M512 66h1M1165 66h1M1228 66h1M512 67h1M1165 67h1M1228 67h1M512 68h1M1165 68h1M1228 68h1M512 69h1M1165 69h1M1228 69h1M512 70h1M1165 70h1M1228 70h1M1165 71h1M1165 72h1M1165 73h1M1165 82h1M1165 83h1M1165 84h1M1165 85h1M1165 86h1M1165 87h1M610 88h1M1165 88h1M610 89h1M1165 89h1M610 90h1M1165 90h1M610 91h1M1165 91h1M610 92h1M1165 92h1M610 93h1M1165 93h1M293 94h1M610 94h1M1165 94h1M1190 94h1M293 95h1M610 95h1M1165 95h1M1190 95h1M293 96h1M610 96h1M1165 96h1M1190 96h1M293 97h1M610 97h1M1165 97h1M1190 97h1M293 98h1M610 98h1M1165 98h1M1190 98h1M293 99h1M1165 99h1M1190 99h1M293 100h1M1165 100h1M1190 100h1M293 101h1M1165 101h1M1190 101h1M293 102h1M1165 102h1M1190 102h1M293 103h1M1165 103h1M1190 103h1M293 104h1M1165 104h1M1190 104h1M293 105h1M1165 105h1M1190 105h1M293 106h1M1165 106h1M1190 106h1M293 107h1M1165 107h1M1190 107h1M293 108h1M1165 108h1M1190 108h1M293 109h1M1165 109h1M1190 109h1M293 110h1M1165 110h1M1190 110h1M293 111h1M1165 111h1M1190 111h1M293 112h1M1165 112h1M1190 112h1M293 113h1M1165 113h1M1190 113h1M293 114h1M1165 114h1M1190 114h1M293 115h1M1165 115h1M1190 115h1M293 116h1M1165 116h1M1190 116h1M293 117h1M831 117h1M1165 117h1M1190 117h1M293 118h1M1165 118h1M1190 118h1M293 119h1M1165 119h1M1190 119h1M293 120h1M1165 120h1M1190 120h1M293 121h1M1190 121h1M293 122h1M1190 122h1M293 123h1M1190 123h1M293 124h1M1190 124h1M293 125h1M1190 125h1M293 126h1M1190 126h1M293 127h1M1190 127h1M293 128h1M1190 128h1M1190 129h1M1190 130h1M1190 131h1M1190 132h1M1190 133h1M1190 134h1M1190 135h1M1190 136h1M1190 137h1M1190 138h1M1190 139h1M541 140h1M1190 140h1M1190 141h1" />
<path stroke="#878787" d="M715 41h1M715 42h1M715 43h1M715 44h1M715 45h1M715 46h1M715 47h1M715 48h1M715 49h1M715 50h1M715 51h1M715 52h1M715 53h1M715 54h1M715 55h1M715 56h1M715 57h1M283 58h24M715 58h1M715 59h1M715 60h1M715 61h1M715 62h1M715 63h1M715 64h1M715 65h1M715 66h1M715 67h1M715 68h1M715 69h1M715 70h1M715 71h1M715 72h1M715 73h1M715 74h1M715 75h1M715 76h1M715 77h1M715 78h1M715 79h1M715 80h1M715 81h1M715 82h1M715 83h1M715 84h1M715 85h1M715 86h1M715 87h1M715 88h1M715 89h1M715 90h1M715 91h1M715 92h1M715 93h1M715 94h1M715 95h1M715 96h1M715 97h1M715 98h1M715 99h1M715 100h1M715 101h1M715 102h1M715 103h1M715 104h1M715 105h1M715 106h1M715 107h1M715 108h1M715 109h1M715 110h1M715 111h1M715 112h1M715 113h1M715 114h1M715 115h1M715 116h1M715 117h1M715 118h1M715 119h1M715 120h1M715 121h1M715 122h1M715 123h1M715 124h1M715 125h1M715 126h1" />
<path stroke="#f0f0f0" d="M203 42h1M547 125h1M832 129h1" />
<path stroke="#323232" d="M330 44h1M330 63h1M899 138h1M626 140h1" />
<path stroke="#626262" d="M343 44h1M343 63h1M884 134h1" />
<path stroke="#494949" d="M379 44h1M379 63h1M1076 129h1" />
<path stroke="#f3f3f3" d="M398 44h1M398 63h1M398 82h1M512 91h1M512 92h1M512 93h1M512 94h1M512 95h1M512 96h1M512 97h1M512 98h1M512 99h1M512 100h1M512 101h1M512 102h1M512 103h1M512 104h1M512 105h1M512 106h1M512 107h1M512 108h1M68 127h58M807 138h1M666 140h115" />
<path stroke="#fefefe" d="M537 45h1M197 85h1M948 89h1M610 122h1M842 123h1M895 125h1M867 127h1M826 132h1M877 132h1M882 134h1M818 135h1M895 138h1M906 140h1M539 141h1" />
<path stroke="#f7f7f7" d="M538 45h110M935 89h1M975 89h1M537 104h1M941 108h1M941 109h1M941 110h1M941 111h1M941 112h1M941 113h1M941 114h1M941 115h1M550 124h1M941 129h1M1166 129h1M941 130h1M941 131h1M941 132h1M941 133h1M941 134h1M941 135h1M941 136h1M941 137h1M941 138h1M941 139h1M941 140h1M941 141h1" />
<path stroke="#cacaca" d="M948 48h1M866 126h1" />
<path stroke="#282828" d="M961 48h1M830 118h1M828 119h1M610 123h1" />
<path stroke="#999999" d="M1176 49h1M1176 93h1M825 120h1M876 131h1" />
<path stroke="#0a0a0a" d="M1207 49h1M868 115h1M627 128h1M906 139h1" />
<path stroke="#fcfcfc" d="M537 51h1M157 104h1M599 116h1M561 119h1M826 119h1M555 122h1M627 127h1M909 127h1M398 129h1M614 137h1M796 140h1" />
<path stroke="#e1e1e1" d="M1049 54h1M890 124h1M618 125h1M604 132h1" />
<path stroke="#d4d4d4" d="M1076 54h1M1002 113h1M876 119h1M822 121h1M837 126h1M537 128h1M608 134h1" />
<path stroke="#d0d0d0" d="M922 56h1M591 123h1M814 136h1" />
<path stroke="#747474" d="M948 56h1" />
<path stroke="#dedede" d="M988 56h1M909 115h1M872 117h1M596 127h1M150 129h1M617 138h1" />
<path stroke="#dadada" d="M282 58h1M894 125h1" />
<path stroke="#797979" d="M512 58h1M603 131h1" />
<path stroke="#a6a6a6" d="M1228 58h1M893 125h1M898 126h1" />
<path stroke="#1a1a1a" d="M1253 58h1M1253 129h1M546 138h1" />
<path stroke="#151515" d="M1267 58h1M834 115h1M1267 129h1" />
<path stroke="#8b8b8b" d="M1294 59h1M1294 60h1M1294 61h1M1294 62h1M1294 63h1M1294 64h1M1294 65h1M1294 66h1M1294 67h1M1294 68h1M1294 69h1M1294 70h1M844 75h1M844 76h1M844 77h1M844 78h1M844 79h1M844 80h1M844 81h1M844 82h1M844 96h1M844 97h1M844 98h1M844 99h1M844 100h1M844 101h1M844 102h1M844 103h1M171 117h1M171 118h1M171 119h1M171 120h1M171 121h1M171 122h1M171 123h1M171 124h1M171 125h1M171 126h1M805 126h1M171 127h1M171 128h1M805 138h1" />
<path stroke="#8a8a8a" d="M216 60h1M841 123h1M265 129h1" />
<path stroke="#f9f9f9" d="M909 62h1M839 125h1M802 126h1M1037 129h1" />
<path stroke="#cfcfcf" d="M1062 67h1M1062 68h1M1062 69h1M1062 70h1M1062 71h1M1062 72h1M1062 73h1M1062 74h1M1062 75h1M1062 76h1M1062 77h1M1062 78h1M1062 79h1M1062 80h1M1062 81h1M1062 82h1M1062 83h1M634 84h1M1062 84h1M634 85h1M1062 85h1M634 86h1M1062 86h1M634 87h1M1062 87h1M634 88h1M1062 88h1M634 89h1M1062 89h1M634 90h1M1062 90h1M634 91h1M1062 91h1M634 92h1M1062 92h1M634 93h1M1062 93h1M634 94h1M1062 94h1M634 95h1M1062 95h1M634 96h1M1062 96h1M634 97h1M1062 97h1M634 98h1M1062 98h1M634 99h1M1062 99h1M634 100h1M1062 100h1M634 101h1M1062 101h1M634 102h1M1062 102h1M634 103h1M1062 103h1M634 104h1M1062 104h1M634 105h1M1062 105h1M634 106h1M1062 106h1M634 107h1M1062 107h1M634 108h1M1062 108h1M634 109h1M1062 109h1M634 110h1M1062 110h1M634 111h1M1062 111h1M634 112h1M1062 112h1M634 113h1M1062 113h1M634 114h1M1062 114h1M634 115h1M1062 115h1M566 116h1M634 116h1M1062 116h1M634 117h1M1062 117h1M634 118h1M1062 118h1M634 119h1M1062 119h1M634 120h1M1062 120h1M634 121h1M1062 121h1M634 122h1M1062 122h1M634 123h1M1062 123h1M572 124h1M634 124h1M1062 124h1M634 125h1M1062 125h1M634 126h1M1062 126h1M634 127h1M1062 127h1M634 128h1M1062 128h1M634 129h1M634 130h1M634 131h1M634 132h1M634 133h1M634 134h1M634 135h1M634 136h1M634 137h1M634 138h1M634 139h1M634 140h1M634 141h1" />
<path stroke="#f4f4f4" d="M474 71h1M154 98h1M824 120h1M602 131h1M811 137h1" />
<path stroke="#bdbdbd" d="M512 71h1" />
<path stroke="#e8e8e8" d="M1085 74h1M657 129h1" />
<path stroke="#ececec" d="M1165 74h1M819 122h1M816 123h1M622 126h1M802 139h1M537 141h1" />
<path stroke="#232323" d="M857 75h1M857 76h1M857 77h1M857 78h1M857 79h1M857 80h1M857 81h1M857 82h1M857 96h1M857 97h1M857 98h1M857 99h1M857 100h1M857 101h1M857 102h1M857 103h1" />
<path stroke="#757575" d="M126 76h1M552 136h1" />
<path stroke="#d2d2d2" d="M410 78h1" />
<path stroke="#e5e5e5" d="M343 82h1M553 123h1M567 128h1" />
<path stroke="#cccccc" d="M366 82h1M840 124h1M899 126h1" />
<path stroke="#f6f6f6" d="M537 83h1M197 98h1M888 136h1M551 137h1M900 139h1" />
<path stroke="#6a6a6a" d="M167 85h1M873 118h1M1295 129h1M558 133h1" />
<path stroke="#a1a1a1" d="M216 85h1M575 121h1" />
<path stroke="#eaeaea" d="M398 88h1M1036 88h1M398 120h1M1085 121h1M861 123h1M623 140h1" />
<path stroke="#3f3f3f" d="M542 88h1M577 88h12M542 89h1M542 90h1M542 91h1M542 92h1M542 93h1M542 94h1M542 95h1M542 96h1M542 97h1M542 98h1M588 121h1M460 122h1M588 122h1M460 123h1M588 123h1M460 124h1M588 124h1M460 125h1M588 125h1M460 126h1M588 126h1M460 127h1M588 127h1M460 128h1M588 128h1M460 129h1M588 129h1M460 130h1M588 130h1M460 131h1M588 131h1M460 132h1M588 132h1M460 133h1M588 133h1M460 134h1M588 134h1M460 135h1M588 135h1M460 136h1M588 136h1M460 137h1M588 137h1M460 138h1M588 138h1M460 139h1M588 139h1M460 140h1M588 140h1M460 141h1M588 141h1" />
<path stroke="#5f5f5f" d="M555 88h1M555 89h1M555 90h1M555 91h1M555 92h1M294 93h12M555 93h1M555 94h1M555 95h1M555 96h1M555 97h1M555 98h1" />
<path stroke="#4e4e4e" d="M576 88h1" />
<path stroke="#6f6f6f" d="M68 89h58M859 121h1M569 126h1M625 140h1" />
<path stroke="#f2f2f2" d="M961 89h1M203 98h1M615 124h1M900 126h1M871 129h1" />
<path stroke="#636363" d="M423 91h1M423 92h1M423 93h1M423 94h1M423 95h1M1152 95h1M423 96h1M1152 96h1M423 97h1M1152 97h1M423 98h1M1152 98h1M423 99h1M1152 99h1M423 100h1M1152 100h1M423 101h1M1152 101h1M423 102h1M1152 102h1M423 103h1M1152 103h1M423 104h1M1152 104h1M423 105h1M1152 105h1M423 106h1M1152 106h1M423 107h1M1152 107h1M423 108h1M1152 108h1M833 116h1M885 123h1M903 127h1M556 134h1" />
<path stroke="#c6c6c6" d="M306 93h1M544 126h1M548 138h1" />
<path stroke="#1d1d1d" d="M1190 93h1M857 95h1M571 124h1M293 129h1" />
<path stroke="#686868" d="M1098 94h1M799 127h1" />
<path stroke="#545454" d="M1152 94h1M549 125h1" />
<path stroke="#737373" d="M844 95h1M955 107h1" />
<path stroke="#f8f8f8" d="M909 95h1M593 125h1M834 128h1M869 128h1M828 131h1M875 131h1M561 132h1" />
<path stroke="#dbdbdb" d="M155 98h42M204 98h65M538 104h38M589 104h39M555 135h1" />
<path stroke="#818181" d="M542 99h1" />
<path stroke="#575757" d="M543 99h12M611 99h13M604 120h1" />
<path stroke="#2b2b2b" d="M628 105h1M628 106h1M628 107h1M628 108h1M628 109h1M628 110h1M628 111h1M628 112h1M628 113h1M628 114h1M628 115h1M561 120h1M839 124h1M619 126h1M325 129h1M628 129h1M628 130h1M628 131h1M628 132h1M628 133h1M628 134h1M628 135h1M628 136h1M628 137h1M808 137h1M628 138h1M628 139h1M628 140h1" />
<path stroke="#e0e0e0" d="M941 107h1M563 118h1M874 118h1M126 127h1M794 127h1M557 134h1M620 139h1" />
<path stroke="#393939" d="M423 109h1M559 121h1M622 139h1" />
<path stroke="#8d8d8d" d="M512 109h1M562 119h1M880 121h1M833 128h1M474 129h1" />
<path stroke="#e6e6e6" d="M988 113h1M612 123h1M592 124h1M559 133h1M823 133h1" />
<path stroke="#252525" d="M567 116h1M826 120h1M807 126h1M797 139h1" />
<path stroke="#030303" d="M597 116h1M605 121h1M553 124h1M612 124h1M802 127h1M979 130h1M979 131h1M979 132h1M979 133h1M979 134h1M979 135h1M979 136h1M979 137h1M979 138h1M979 139h1M627 140h1M979 140h1M979 141h1" />
<path stroke="#e9e9e9" d="M832 116h1" />
<path stroke="#414141" d="M869 116h1M546 126h1M836 126h1" />
<path stroke="#959595" d="M565 117h1M905 127h1" />
<path stroke="#070707" d="M566 117h1M590 121h1" />
<path stroke="#3d3d3d" d="M599 117h1M821 122h1" />
<path stroke="#0f0f0f" d="M832 117h1M600 118h1" />
<path stroke="#010101" d="M870 117h1M603 120h1M844 120h1M876 120h1M607 122h1M808 126h1M622 127h1M880 132h1M608 133h1M617 137h1M623 139h1" />
<path stroke="#585858" d="M871 117h1M888 124h1M609 134h1" />
<path stroke="#4a4a4a" d="M564 118h1M608 122h1M552 124h1M542 127h1M879 132h1M798 139h1" />
<path stroke="#949494" d="M601 118h1" />
<path stroke="#a7a7a7" d="M829 118h1M474 122h1M474 123h1M474 124h1M474 125h1M474 126h1M474 127h1M474 128h1M601 130h1" />
<path stroke="#0b0b0b" d="M563 119h1M572 123h1" />
<path stroke="#343434" d="M602 119h1" />
<path stroke="#a4a4a4" d="M827 119h1M886 135h1" />
<path stroke="#040404" d="M874 119h1M325 120h1M819 123h1M816 124h1M823 132h1M555 134h1M612 135h1M900 138h1" />
<path stroke="#5d5d5d" d="M875 119h1M605 132h1M611 135h1" />
<path stroke="#b0b0b0" d="M560 120h1M568 127h1M796 127h1" />
<path stroke="#191919" d="M576 120h1M815 135h1" />
<path stroke="#161616" d="M588 120h1" />
<path stroke="#4c4c4c" d="M857 120h1M811 125h1" />
<path stroke="#383838" d="M858 120h1M593 124h1" />
<path stroke="#4f4f4f" d="M877 120h1" />
<path stroke="#535353" d="M576 121h1M576 122h1M576 123h1M576 124h1M576 125h1M576 126h1M576 127h1M576 128h1M576 129h1M576 130h1M576 131h1M576 132h1M824 132h1M576 133h1M607 133h1M576 134h1M576 135h1M576 136h1M576 137h1M576 138h1M576 139h1M904 139h1M576 140h1M576 141h1" />
<path stroke="#b4b4b4" d="M589 121h1" />
<path stroke="#5e5e5e" d="M606 121h1" />
<path stroke="#d9d9d9" d="M607 121h1" />
<path stroke="#6c6c6c" d="M823 121h1M620 126h1M809 137h1" />
<path stroke="#0e0e0e" d="M824 121h1M591 122h1M596 126h1M564 129h1" />
<path stroke="#222222" d="M843 121h1M801 127h1" />
<path stroke="#272727" d="M879 121h1M150 130h1M150 131h1M877 131h1M150 132h1M150 133h1M150 134h1M150 135h1M150 136h1M150 137h1M150 138h1M150 139h1M150 140h1M150 141h1" />
<path stroke="#ededed" d="M881 121h1M864 125h1M539 127h1" />
<path stroke="#a9a9a9" d="M556 122h1M863 124h1" />
<path stroke="#363636" d="M557 122h1" />
<path stroke="#050505" d="M573 122h1M840 123h1M837 125h1M547 126h1M796 139h1" />
<path stroke="#a5a5a5" d="M574 122h1M548 125h1" />
<path stroke="#bcbcbc" d="M590 122h1M809 125h1M825 132h1" />
<path stroke="#b8b8b8" d="M609 122h1M883 122h1M540 127h1" />
<path stroke="#9a9a9a" d="M820 122h1M565 129h1" />
<path stroke="#484848" d="M842 122h1M800 127h1" />
<path stroke="#5c5c5c" d="M882 122h1" />
<path stroke="#888888" d="M554 123h1M810 125h1M874 130h1" />
<path stroke="#1f1f1f" d="M555 123h1M834 127h1M869 127h1M281 130h1M281 131h1M281 132h1M281 133h1M281 134h1M818 134h1M281 135h1M281 136h1M281 137h1M281 138h1M281 139h1M281 140h1M281 141h1" />
<path stroke="#8c8c8c" d="M611 123h1M598 128h1M870 128h1M893 137h1M621 139h1" />
<path stroke="#464646" d="M818 123h1M613 124h1M616 125h1M566 128h1M616 137h1" />
<path stroke="#505050" d="M862 123h1M540 140h1" />
<path stroke="#121212" d="M884 123h1M887 124h1M832 128h1M873 129h1M551 136h1" />
<path stroke="#aaaaaa" d="M551 124h1" />
<path stroke="#9d9d9d" d="M889 124h1" />
<path stroke="#0c0c0c" d="M550 125h1M812 125h1M559 132h1" />
<path stroke="#3a3a3a" d="M570 125h1" />
<path stroke="#666666" d="M594 125h1" />
<path stroke="#7c7c7c" d="M838 125h1" />
<path stroke="#656565" d="M865 125h1" />
<path stroke="#262626" d="M891 125h1" />
<path stroke="#848484" d="M545 126h1" />
<path stroke="#a8a8a8" d="M595 126h1M835 127h1M1002 129h1" />
<path stroke="#adadad" d="M621 126h1M624 140h1" />
<path stroke="#595959" d="M806 126h1M628 128h1" />
<path stroke="#101010" d="M895 126h1M895 137h1" />
<path stroke="#434343" d="M896 126h1M1295 130h1M1295 131h1M1295 132h1M1295 133h1M1295 134h1M1295 135h1M1295 136h1M1295 137h1M1295 138h1M1295 139h1M1295 140h1M1295 141h1" />
<path stroke="#787878" d="M897 126h1" />
<path stroke="#828282" d="M541 127h1" />
<path stroke="#0d0d0d" d="M543 127h1M885 134h1" />
<path stroke="#3e3e3e" d="M597 127h1M902 127h1" />
<path stroke="#2d2d2d" d="M623 127h1" />
<path stroke="#9c9c9c" d="M625 127h1M827 131h1M902 139h1" />
<path stroke="#d1d1d1" d="M626 127h1M941 128h1M606 133h1M820 134h1M538 141h1" />
<path stroke="#c8c8c8" d="M795 127h1M628 141h1" />
<path stroke="#989898" d="M797 127h1" />
<path stroke="#808080" d="M798 127h1M831 129h1" />
<path stroke="#181818" d="M901 127h1M875 130h1M543 139h1" />
<path stroke="#7d7d7d" d="M904 127h1" />
<path stroke="#acacac" d="M906 127h1" />
<path stroke="#c4c4c4" d="M907 127h1" />
<path stroke="#dcdcdc" d="M908 127h1" />
<path stroke="#242424" d="M538 128h1" />
<path stroke="#090909" d="M599 128h1M888 135h1" />
<path stroke="#767676" d="M171 129h1" />
<path stroke="#4d4d4d" d="M281 129h1" />
<path stroke="#dddddd" d="M599 129h1M880 133h1M795 140h1" />
<path stroke="#454545" d="M600 129h1" />
<path stroke="#858585" d="M872 129h1M829 130h1M560 132h1" />
<path stroke="#515151" d="M563 130h1" />
<path stroke="#e4e4e4" d="M564 130h1M612 136h1M907 140h1" />
<path stroke="#1c1c1c" d="M602 130h1" />
<path stroke="#212121" d="M561 131h1M882 133h1M891 136h1M803 138h1" />
<path stroke="#2a2a2a" d="M826 131h1" />
<path stroke="#2c2c2c" d="M821 133h1" />
<path stroke="#868686" d="M822 133h1M618 138h1" />
<path stroke="#7e7e7e" d="M881 133h1" />
<path stroke="#c1c1c1" d="M883 134h1M545 139h1" />
<path stroke="#696969" d="M816 135h1M898 138h1" />
<path stroke="#424242" d="M812 136h1" />
<path stroke="#898989" d="M813 136h1" />
<path stroke="#b5b5b5" d="M889 136h1" />
<path stroke="#303030" d="M549 137h1" />
<path stroke="#aeaeae" d="M615 137h1" />
<path stroke="#d6d6d6" d="M892 137h1" />
<path stroke="#474747" d="M894 137h1" />
<path stroke="#6d6d6d" d="M547 138h1" />
<path stroke="#565656" d="M804 138h1" />
<path stroke="#a0a0a0" d="M897 138h1" />
<path stroke="#6e6e6e" d="M799 139h1" />
<path stroke="#929292" d="M800 139h1" />
<path stroke="#c5c5c5" d="M901 139h1" />
<path stroke="#2e2e2e" d="M905 139h1" />
<path stroke="#cecece" d="M542 140h1" />
</svg>